%FSTAX44Y44*%
%MOMM*%
%SFA1B1*%

%IPPOS*%
%ADD10C,0.200000*%
%ADD19C,2.199996*%
%ADD20C,0.999998*%
%ADD21R,0.822198X4.470391*%
%ADD22R,6.101888X0.924898*%
%ADD23R,0.590899X4.881490*%
%ADD24R,1.186198X14.358271*%
%ADD25R,4.729191X1.185298*%
%ADD26R,14.232372X0.964598*%
%ADD27R,0.956198X14.255071*%
%ADD28R,5.161790X1.511097*%
%ADD29C,0.499999*%
%LNpcb1-1*%
%LPD*%
G36*
X00094944Y00169365D02*
X00095258Y00167785D01*
X00096153Y00166445*
X00097493Y0016555*
X00099073Y00165236*
X00137128*
X00137269Y00165264*
X00141531Y00164928*
X00145826Y00163897*
X00149906Y00162207*
X00153672Y00159899*
X00157031Y00157031*
X00159899Y00153672*
X00162207Y00149906*
X00163897Y00145826*
X00164928Y00141531*
X00165264Y00137269*
X00165236Y00137128*
Y0*
X00165264Y-0000014*
X00164928Y-00004402*
X00163897Y-00008697*
X00162207Y-00012778*
X00159899Y-00016543*
X00157031Y-00019902*
X00153672Y-0002277*
X00149906Y-00025078*
X00145826Y-00026768*
X00141531Y-000278*
X00137269Y-00028135*
X00137128Y-00028107*
X0*
X-0000014Y-00028135*
X-00004402Y-000278*
X-00008697Y-00026768*
X-00012778Y-00025078*
X-00016543Y-0002277*
X-00019902Y-00019902*
X-0002277Y-00016543*
X-00025078Y-00012778*
X-00026768Y-00008697*
X-000278Y-00004402*
X-00028135Y-0000014*
X-00028107Y0*
Y00137128*
X-00028135Y00137269*
X-000278Y00141531*
X-00026768Y00145826*
X-00025078Y00149906*
X-0002277Y00153672*
X-00019902Y00157031*
X-00016543Y00159899*
X-00012778Y00162207*
X-00008697Y00163897*
X-00004402Y00164928*
X-0000014Y00165264*
X0Y00165236*
X00038054*
X00039634Y0016555*
X00040974Y00166445*
X00041869Y00167785*
X00042183Y00169365*
Y0020725*
X00094944*
Y00169365*
G37*
%LNpcb1-2*%
%LPC*%
G36*
X00069459Y00181935D02*
X00067668D01*
X00066014Y0018125*
X00064748Y00179984*
X00064063Y0017833*
Y0017654*
X00064748Y00174886*
X000652Y00174435*
X00064748Y00173984*
X00064063Y00172331*
Y0017054*
X00064748Y00168886*
X000652Y00168435*
X00064748Y00167984*
X00064063Y00166331*
Y0016454*
X00064748Y00162886*
X000652Y00162435*
X00064748Y00161984*
X00064063Y0016033*
Y0015854*
X00064748Y00156886*
X000652Y00156435*
X00064748Y00155984*
X00064063Y00154331*
Y0015254*
X00064748Y00150886*
X00066014Y0014962*
X00067286Y00149094*
X00067063Y00147811*
X00060355Y00147482*
X00052434Y00146307*
X00044667Y00144361*
X00037127Y00141664*
X00029888Y0013824*
X0002302Y00134123*
X00016588Y00129353*
X00010655Y00123975*
X00005277Y00118042*
X00000508Y0011161*
X-00003608Y00104742*
X-00007032Y00097503*
X-00009729Y00089963*
X-00011675Y00082196*
X-0001285Y00074275*
X-00013243Y00066277*
X-0001285Y00058279*
X-00011675Y00050358*
X-00009729Y0004259*
X-00007032Y0003505*
X-00003608Y00027811*
X00000508Y00020943*
X00005277Y00014511*
X00010655Y00008578*
X00016588Y000032*
X0002302Y-00001568*
X00029888Y-00005685*
X00037127Y-00009108*
X00044667Y-00011806*
X00052434Y-00013752*
X00060355Y-00014927*
X00064707Y-00015141*
X00065097Y-00015218*
X00065299Y-00015258*
X00065657Y-00015187*
X00068433Y-00015324*
X00076627Y-00014921*
X00084743Y-00013717*
X00092701Y-00011724*
X00100426Y-0000896*
X00107842Y-00005452*
X00114879Y-00001234*
X00121469Y00003651*
X00127548Y0000916*
X00133058Y0001524*
X00137945Y00021829*
X00142162Y00028866*
X0014567Y00036282*
X00148434Y00044007*
X00150428Y00051965*
X00151631Y00060081*
X00152034Y00068275*
X00151631Y00076469*
X00150428Y00084585*
X00148434Y00092543*
X0014567Y00100268*
X00142162Y00107684*
X00137945Y00114721*
X00133058Y00121311*
X00127548Y0012739*
X00121469Y00132899*
X00114879Y00137786*
X00107842Y00142004*
X00100426Y00145512*
X0009906Y00146001*
Y00149001*
X00098671Y00150952*
X00097566Y00152606*
X00095912Y00153711*
X00093961Y00154099*
X0009201Y00153711*
X00090356Y00152606*
X00089251Y00150952*
X00088863Y00149001*
Y00146179*
X00087849Y00145415*
X00086151Y00145904*
X00077349Y001474*
X0007287Y00147651*
X0007161Y00147773*
X00071408Y00147814*
X00071218Y00147776*
X00070019Y00147796*
X00069797Y00149075*
X00071112Y0014962*
X00072378Y00150886*
X00073063Y0015254*
Y00154331*
X00072378Y00155984*
X00071927Y00156435*
X00072378Y00156886*
X00073063Y0015854*
Y0016033*
X00072378Y00161984*
X00071927Y00162435*
X00072378Y00162886*
X00073063Y0016454*
Y00166331*
X00072378Y00167984*
X00071927Y00168435*
X00072378Y00168886*
X00073063Y0017054*
Y00172331*
X00072378Y00173984*
X00071927Y00174435*
X00072378Y00174886*
X00073063Y0017654*
Y0017833*
X00072378Y00179984*
X00071112Y0018125*
X00069459Y00181935*
G37*
%LNpcb1-3*%
%LPD*%
G36*
X00095569Y00147064D02*
X00095441Y00146901D01*
X00095329Y00146727*
X00095231Y00146542*
X00095149Y00146347*
X00095081Y00146141*
X00095029Y00145924*
X00094991Y00145697*
X00094969Y00145459*
X00094961Y0014521*
X00092961*
X00092954Y00145459*
X00092931Y00145697*
X00092894Y00145924*
X00092841Y00146141*
X00092774Y00146347*
X00092691Y00146542*
X00092594Y00146727*
X00092481Y00146901*
X00092354Y00147064*
X00092211Y00147216*
X00095711*
X00095569Y00147064*
G37*
G36*
X00060778Y00069813D02*
X00060626Y00069956D01*
X00060463Y00070083*
X00060289Y00070196*
X00060104Y00070293*
X00059909Y00070376*
X00059703Y00070443*
X00059486Y00070496*
X00059259Y00070533*
X00059021Y00070556*
X00058772Y00070563*
Y00072563*
X00059021Y00072571*
X00059259Y00072593*
X00059486Y00072631*
X00059703Y00072683*
X00059909Y00072751*
X00060104Y00072833*
X00060289Y00072931*
X00060463Y00073043*
X00060626Y00073171*
X00060778Y00073313*
Y00069813*
G37*
G54D10*
X00058087Y00071563D02*
D01*
X00057968Y00071559*
X00057849Y00071547*
X00057732Y00071526*
X00057616Y00071497*
X00057502Y0007146*
X00057392Y00071415*
X00057284Y00071363*
X00057181Y00071303*
X00057082Y00071237*
X00056987Y00071163*
X00056899Y00071083*
X00056816Y00070997*
X00056739Y00070906*
X00056669Y00070809*
X00056606Y00070708*
X0005655Y00070602*
X00056501Y00070493*
X0005646Y00070381*
X00056427Y00070266*
X00056402Y00070149*
X00056386Y00070031*
X00056377Y00069912*
X00056376Y00069852*
X00069172Y0008676D02*
D01*
X00067742Y00086767*
X00066314Y00086675*
X00064896Y00086483*
X00063494Y00086192*
X00062117Y00085805*
X0006077Y00085322*
X0005946Y00084747*
X00058193Y00084081*
X00056976Y00083329*
X00055814Y00082494*
X00054713Y00081579*
X00053679Y00080591*
X00052716Y00079532*
X0005183Y00078409*
X00051024Y00077227*
X00050302Y00075991*
X00049668Y00074708*
X00049126Y00073384*
X00048677Y00072026*
X00048324Y00070639*
X00048068Y00069231*
X00047912Y00067809*
X00047854Y00066379*
X00047897Y00064949*
X0004804Y00063525*
X00048281Y00062114*
X0004862Y00060725*
X00049056Y00059361*
X00049585Y00058032*
X00050206Y00056743*
X00050915Y000555*
X00051709Y0005431*
X00052584Y00053178*
X00053537Y0005211*
X00054561Y0005111*
X00055652Y00050185*
X00056806Y00049338*
X00058015Y00048574*
X00059275Y00047896*
X0006058Y00047308*
X00061922Y00046811*
X00063295Y0004641*
X00064694Y00046106*
X00066109Y00045899*
X00067535Y00045793*
X00069651Y00098751D02*
D01*
X00067383Y00098763*
X00065119Y00098616*
X00062871Y00098312*
X0006065Y00097851*
X00058466Y00097237*
X00056331Y00096472*
X00054254Y0009556*
X00052246Y00094505*
X00050316Y00093312*
X00048474Y00091988*
X00046729Y00090539*
X00045089Y00088971*
X00043563Y00087293*
X00042157Y00085513*
X00040879Y00083638*
X00039735Y0008168*
X0003873Y00079646*
X0003787Y00077547*
X00037158Y00075393*
X00036598Y00073195*
X00036193Y00070963*
X00035945Y00068708*
X00035854Y00066441*
X00035922Y00064174*
X00036147Y00061917*
X0003653Y00059681*
X00037068Y00057477*
X00037758Y00055316*
X00038597Y00053208*
X00039581Y00051164*
X00040705Y00049194*
X00041964Y00047307*
X00043352Y00045513*
X00044861Y00043819*
X00046485Y00042235*
X00048216Y00040768*
X00050044Y00039426*
X00051962Y00038214*
X00053959Y00037139*
X00056027Y00036206*
X00058155Y00035419*
X00060332Y00034783*
X00062549Y000343*
X00064793Y00033973*
X00067056Y00033803*
X00067056*
X00069491Y00094754D02*
D01*
X00067502Y00094764*
X00065517Y00094636*
X00063546Y00094369*
X00061598Y00093965*
X00059683Y00093426*
X0005781Y00092755*
X00055989Y00091955*
X00054228Y0009103*
X00052536Y00089985*
X0005092Y00088824*
X0004939Y00087553*
X00047952Y00086178*
X00046614Y00084706*
X00045381Y00083145*
X00044261Y00081501*
X00043257Y00079784*
X00042376Y00078*
X00041622Y0007616*
X00040998Y00074271*
X00040507Y00072343*
X00040151Y00070386*
X00039933Y00068409*
X00039854Y00066421*
X00039913Y00064432*
X00040111Y00062453*
X00040447Y00060492*
X00040918Y0005856*
X00041524Y00056665*
X0004226Y00054817*
X00043123Y00053024*
X00044109Y00051297*
X00045213Y00049642*
X00046429Y00048068*
X00047753Y00046583*
X00049177Y00045194*
X00050694Y00043908*
X00052298Y00042731*
X00053979Y00041668*
X00055731Y00040725*
X00057544Y00039907*
X0005941Y00039217*
X00061319Y00038659*
X00063263Y00038236*
X00065232Y00037949*
X00067215Y000378*
X00067216Y00037799*
X00069332Y00090757D02*
D01*
X00067622Y00090766*
X00065916Y00090655*
X00064221Y00090426*
X00062546Y00090079*
X000609Y00089616*
X0005929Y00089039*
X00057725Y00088351*
X00056211Y00087556*
X00054756Y00086657*
X00053367Y00085658*
X00052052Y00084566*
X00050816Y00083384*
X00049665Y00082119*
X00048606Y00080777*
X00047642Y00079364*
X0004678Y00077887*
X00046022Y00076354*
X00045374Y00074772*
X00044837Y00073148*
X00044415Y00071491*
X0004411Y00069808*
X00043922Y00068108*
X00043854Y00066399*
X00043905Y0006469*
X00044075Y00062988*
X00044364Y00061303*
X00044769Y00059641*
X0004529Y00058012*
X00045922Y00056424*
X00046664Y00054883*
X00047512Y00053398*
X00048461Y00051975*
X00049507Y00050622*
X00050645Y00049346*
X00051869Y00048152*
X00053174Y00047046*
X00054552Y00046033*
X00055998Y0004512*
X00057504Y0004431*
X00059062Y00043606*
X00060666Y00043013*
X00062308Y00042534*
X00063979Y0004217*
X00065671Y00041923*
X00067375Y00041796*
X00069012Y00082763D02*
D01*
X00067861Y00082769*
X00066711Y00082695*
X0006557Y0008254*
X00064442Y00082306*
X00063334Y00081995*
X0006225Y00081606*
X00061195Y00081143*
X00060175Y00080607*
X00059196Y00080002*
X0005826Y0007933*
X00057375Y00078594*
X00056542Y00077798*
X00055767Y00076946*
X00055053Y00076042*
X00054405Y00075091*
X00053824Y00074096*
X00053314Y00073064*
X00052877Y00071998*
X00052516Y00070904*
X00052231Y00069788*
X00052026Y00068655*
X00051899Y0006751*
X00051853Y0006636*
X00051888Y00065208*
X00052002Y00064062*
X00052197Y00062927*
X0005247Y00061808*
X0005282Y00060711*
X00053246Y00059641*
X00053746Y00058604*
X00054317Y00057603*
X00054956Y00056645*
X0005566Y00055734*
X00056427Y00054874*
X00057251Y0005407*
X00058129Y00053326*
X00059058Y00052644*
X00060031Y00052029*
X00061046Y00051483*
X00062095Y00051009*
X00063175Y0005061*
X00064281Y00050287*
X00065406Y00050042*
X00066546Y00049875*
X00067694Y00049789*
X00067695Y0004979*
X00056376Y00069852D02*
D01*
X00056156Y00069008*
X00055995Y0006815*
X00055895Y00067284*
X00055855Y00066412*
X00055876Y0006554*
X00055958Y00064671*
X000561Y00063811*
X00056302Y00062962*
X00056563Y00062129*
X00056881Y00061317*
X00057255Y00060528*
X00057683Y00059768*
X00058163Y0005904*
X00058693Y00058346*
X00059269Y00057692*
X0005989Y00057079*
X00060553Y00056511*
X00061253Y0005599*
X00061988Y0005552*
X00062754Y00055102*
X00063547Y00054739*
X00064364Y00054431*
X000652Y00054182*
X00066051Y00053991*
X00066914Y0005386*
X00067783Y0005379*
X00067854Y00053786*
X00069811Y00102747D02*
D01*
X00067264Y0010276*
X00064721Y00102595*
X00062197Y00102253*
X00059702Y00101736*
X0005725Y00101046*
X00054851Y00100187*
X00052519Y00099162*
X00050263Y00097978*
X00048096Y00096638*
X00046027Y00095151*
X00044067Y00093524*
X00042226Y00091763*
X00040512Y00089878*
X00038933Y00087879*
X00037498Y00085774*
X00036213Y00083574*
X00035085Y0008129*
X00034119Y00078932*
X00033319Y00076513*
X00032691Y00074044*
X00032235Y00071538*
X00031957Y00069005*
X00031855Y0006646*
X00031931Y00063913*
X00032184Y00061378*
X00032614Y00058867*
X00033218Y00056392*
X00033993Y00053965*
X00034936Y00051598*
X00036041Y00049303*
X00037304Y0004709*
X00038718Y00044971*
X00040276Y00042955*
X00041971Y00041054*
X00043795Y00039275*
X00045739Y00037627*
X00047792Y00036119*
X00049946Y00034758*
X00052189Y00033551*
X00054511Y00032503*
X00056901Y0003162*
X00059346Y00030905*
X00061836Y00030363*
X00064357Y00029996*
X00066896Y00029806*
X0007029Y00114738D02*
D01*
X00066905Y00114755*
X00063527Y00114536*
X00060172Y00114082*
X00056858Y00113395*
X00053599Y00112478*
X00050412Y00111336*
X00047313Y00109975*
X00044316Y00108401*
X00041436Y00106621*
X00038687Y00104645*
X00036083Y00102482*
X00033636Y00100143*
X00031359Y00097639*
X00029261Y00094982*
X00027354Y00092184*
X00025647Y00089261*
X00024147Y00086226*
X00022864Y00083094*
X00021801Y0007988*
X00020966Y00076599*
X00020361Y00073268*
X00019991Y00069903*
X00019855Y00066521*
X00019957Y00063137*
X00020293Y00059769*
X00020865Y00056432*
X00021667Y00053143*
X00022697Y00049919*
X00023949Y00046774*
X00025418Y00043724*
X00027096Y00040783*
X00028975Y00037967*
X00031045Y00035289*
X00033298Y00032762*
X00035721Y00030398*
X00038303Y0002821*
X00041032Y00026206*
X00043894Y00024398*
X00046875Y00022793*
X00049961Y00021401*
X00053136Y00020227*
X00056385Y00019278*
X00059693Y00018558*
X00063043Y0001807*
X00066417Y00017815*
X00071088Y00134722D02*
D01*
X00066307Y00134747*
X00061536Y00134437*
X00056798Y00133795*
X00052116Y00132825*
X00047514Y0013153*
X00043013Y00129917*
X00038635Y00127995*
X00034403Y00125771*
X00030335Y00123258*
X00026453Y00120467*
X00022775Y00117413*
X00019319Y00114108*
X00016102Y00110572*
X00013139Y00106819*
X00010446Y00102868*
X00008034Y0009874*
X00005917Y00094453*
X00004103Y00090029*
X00002603Y0008549*
X00001423Y00080856*
X00000569Y00076152*
X00000045Y00071399*
X-00000144Y00066622*
X-00000001Y00061843*
X00000473Y00057085*
X0000128Y00052373*
X00002413Y00047728*
X00003868Y00043173*
X00005637Y00038731*
X00007711Y00034423*
X00010081Y00030271*
X00012734Y00026294*
X00015659Y00022511*
X0001884Y00018942*
X00022263Y00015603*
X0002591Y00012512*
X00029764Y00009682*
X00033806Y00007128*
X00038016Y00004862*
X00042374Y00002896*
X00046858Y00001238*
X00051448Y-00000102*
X00056119Y-0000112*
X00060851Y-00001809*
X00065618Y-00002166*
X00065619Y-00002167*
X00070929Y00130725D02*
D01*
X00066427Y00130748*
X00061935Y00130456*
X00057473Y00129852*
X00053065Y00128939*
X00048731Y00127719*
X00044493Y00126201*
X00040371Y0012439*
X00036385Y00122297*
X00032555Y0011993*
X000289Y00117302*
X00025437Y00114426*
X00022182Y00111315*
X00019153Y00107984*
X00016364Y00104451*
X00013828Y00100731*
X00011557Y00096843*
X00009563Y00092807*
X00007855Y00088641*
X00006443Y00084367*
X00005332Y00080004*
X00004528Y00075574*
X00004035Y00071099*
X00003855Y00066601*
X00003989Y000621*
X00004437Y00057621*
X00005197Y00053183*
X00006264Y00048809*
X00007634Y00044521*
X00009299Y00040338*
X00011252Y00036282*
X00013484Y00032372*
X00015982Y00028627*
X00018736Y00025065*
X00021732Y00021704*
X00024955Y00018561*
X00028389Y0001565*
X00032018Y00012985*
X00035824Y0001058*
X00039788Y00008447*
X00043892Y00006595*
X00048114Y00005034*
X00052436Y00003771*
X00056835Y00002813*
X0006129Y00002164*
X00065778Y00001828*
X00070769Y00126728D02*
D01*
X00066546Y0012675*
X00062333Y00126476*
X00058148Y00125909*
X00054013Y00125052*
X00049948Y00123909*
X00045972Y00122484*
X00042106Y00120786*
X00038368Y00118822*
X00034775Y00116603*
X00031347Y00114138*
X00028098Y00111439*
X00025046Y00108521*
X00022204Y00105397*
X00019588Y00102083*
X00017209Y00098594*
X00015079Y00094947*
X00013209Y00091161*
X00011607Y00087254*
X00010282Y00083244*
X0000924Y00079152*
X00008486Y00074997*
X00008023Y000708*
X00007855Y0006658*
X00007981Y00062359*
X00008401Y00058157*
X00009114Y00053995*
X00010115Y00049892*
X000114Y0004587*
X00012962Y00041947*
X00014794Y00038142*
X00016887Y00034474*
X00019231Y00030961*
X00021814Y00027621*
X00024624Y00024468*
X00027647Y0002152*
X00030868Y00018789*
X00034272Y0001629*
X00037841Y00014034*
X0004156Y00012033*
X00045409Y00010296*
X0004937Y00008832*
X00053424Y00007647*
X0005755Y00006749*
X00061728Y0000614*
X00065938Y00005825*
X0007045Y00118735D02*
D01*
X00066786Y00118754*
X00063129Y00118517*
X00059498Y00118025*
X0005591Y00117281*
X00052382Y00116289*
X00048933Y00115053*
X00045578Y00113579*
X00042333Y00111875*
X00039216Y00109949*
X00036241Y0010781*
X00033422Y00105468*
X00030773Y00102936*
X00028307Y00100225*
X00026037Y00097349*
X00023973Y00094322*
X00022124Y00091157*
X00020501Y00087872*
X00019111Y00084481*
X00017962Y00081002*
X00017057Y00077451*
X00016403Y00073845*
X00016002Y00070203*
X00015855Y00066541*
X00015965Y00062878*
X00016329Y00059232*
X00016948Y0005562*
X00017816Y0005206*
X00018931Y0004857*
X00020287Y00045165*
X00021877Y00041864*
X00023693Y00038681*
X00025726Y00035633*
X00027968Y00032734*
X00030406Y00029998*
X00033029Y00027439*
X00035825Y0002507*
X00038778Y00022901*
X00041876Y00020944*
X00045103Y00019207*
X00048443Y000177*
X0005188Y00016429*
X00055398Y00015402*
X00058978Y00014622*
X00062604Y00014093*
X00066257Y00013819*
X0007013Y00110741D02*
D01*
X00067024Y00110757*
X00063925Y00110556*
X00060847Y00110139*
X00057805Y00109509*
X00054815Y00108668*
X00051891Y0010762*
X00049047Y00106371*
X00046298Y00104926*
X00043655Y00103294*
X00041133Y00101481*
X00038744Y00099496*
X00036499Y0009735*
X00034409Y00095052*
X00032484Y00092614*
X00030734Y00090048*
X00029168Y00087366*
X00027792Y00084581*
X00026614Y00081707*
X00025639Y00078758*
X00024872Y00075748*
X00024318Y00072692*
X00023977Y00069604*
X00023853Y00066501*
X00023946Y00063396*
X00024255Y00060305*
X00024779Y00057243*
X00025516Y00054226*
X0002646Y00051267*
X0002761Y00048381*
X00028957Y00045583*
X00030497Y00042885*
X0003222Y00040301*
X0003412Y00037844*
X00036187Y00035525*
X00038411Y00033357*
X0004078Y00031348*
X00043284Y00029509*
X00045909Y0002785*
X00048645Y00026378*
X00051476Y00025101*
X00054389Y00024024*
X0005737Y00023153*
X00060405Y00022491*
X00063479Y00022044*
X00066576Y00021811*
X00066577Y00021812*
X0006997Y00106744D02*
D01*
X00067144Y00106758*
X00064322Y00106576*
X00061521Y00106196*
X00058753Y00105622*
X00056032Y00104857*
X00053371Y00103904*
X00050782Y00102767*
X0004828Y00101452*
X00045875Y00099966*
X0004358Y00098316*
X00041405Y0009651*
X00039362Y00094556*
X0003746Y00092465*
X00035708Y00090246*
X00034116Y00087911*
X0003269Y0008547*
X00031438Y00082935*
X00030366Y0008032*
X00029479Y00077635*
X00028781Y00074896*
X00028276Y00072115*
X00027966Y00069305*
X00027854Y0006648*
X00027938Y00063654*
X00028219Y00060842*
X00028696Y00058055*
X00029366Y00055309*
X00030226Y00052616*
X00031272Y0004999*
X00032499Y00047443*
X000339Y00044987*
X00035469Y00042636*
X00037198Y000404*
X00039079Y00038289*
X00041102Y00036315*
X00043259Y00034488*
X00045537Y00032815*
X00047927Y00031304*
X00050416Y00029965*
X00052993Y00028802*
X00055645Y00027822*
X00058358Y00027029*
X0006112Y00026427*
X00063917Y0002602*
X00066736Y00025809*
X00071408Y00142716D02*
D01*
X00066069Y00142743*
X0006074Y00142397*
X00055449Y00141681*
X00050221Y00140597*
X0004508Y00139151*
X00040054Y0013735*
X00035165Y00135203*
X00030438Y0013272*
X00025895Y00129913*
X0002156Y00126796*
X00017452Y00123385*
X00013593Y00119695*
X0001Y00115745*
X00006691Y00111554*
X00003683Y00107142*
X0000099Y00102531*
X-00001373Y00097744*
X-00003399Y00092803*
X-00005074Y00087733*
X-00006392Y00082558*
X-00007345Y00077305*
X-0000793Y00071997*
X-00008144Y00066662*
X-00007984Y00061324*
X-00007452Y00056012*
X-00006552Y00050748*
X-00005286Y00045561*
X-00003661Y00040474*
X-00001686Y00035514*
X00000629Y00030703*
X00003276Y00026065*
X00006239Y00021624*
X00009506Y00017399*
X00013058Y00013413*
X00016881Y00009685*
X00020954Y00006232*
X00025258Y00003072*
X00029772Y00000219*
X00034474Y-0000231*
X00039341Y-00004506*
X00044349Y-00006357*
X00049475Y-00007855*
X00054692Y-00008991*
X00059976Y-00009761*
X00065299Y-0001016*
X00071248Y00138719D02*
D01*
X00066188Y00138745*
X00061138Y00138417*
X00056124Y00137738*
X00051169Y00136711*
X00046297Y00135341*
X00041533Y00133634*
X000369Y00131599*
X0003242Y00129246*
X00028115Y00126586*
X00024006Y00123632*
X00020114Y00120399*
X00016456Y00116902*
X00013051Y00113159*
X00009915Y00109186*
X00007064Y00105006*
X00004512Y00100636*
X00002271Y00096099*
X00000352Y00091416*
X-00001235Y00086612*
X-00002484Y00081708*
X-00003388Y00076729*
X-00003942Y00071699*
X-00004144Y00066642*
X-00003993Y00061584*
X-00003489Y00056549*
X-00002636Y00051561*
X-00001436Y00046645*
X00000102Y00041824*
X00001974Y00037123*
X00004169Y00032564*
X00006677Y00028168*
X00009486Y00023959*
X00012581Y00019956*
X00015948Y00016178*
X00019571Y00012644*
X00023431Y00009372*
X0002751Y00006377*
X00031788Y00003674*
X00036244Y00001276*
X00040856Y-00000804*
X00045603Y-00002559*
X0005046Y-00003978*
X00055405Y-00005055*
X00060412Y-00005785*
X00065458Y-00006163*
X00065459Y-00006164*
X00067056Y00033803D02*
D01*
X00069464Y00033791*
X00071867Y00033947*
X00074254Y0003427*
X00076611Y00034759*
X00078929Y00035411*
X00081196Y00036223*
X00083401Y00037192*
X00085533Y00038312*
X00087581Y00039578*
X00089537Y00040983*
X00091389Y00042522*
X0009313Y00044186*
X0009475Y00045967*
X00096242Y00047857*
X00097598Y00049847*
X00098813Y00051926*
X00099879Y00054085*
X00100793Y00056313*
X00101548Y000586*
X00102143Y00060933*
X00102573Y00063303*
X00102836Y00065696*
X00102932Y00068102*
X0010286Y00070509*
X00102621Y00072905*
X00102214Y00075279*
X00101644Y00077618*
X00100911Y00079912*
X0010002Y00082149*
X00098975Y00084319*
X00097782Y0008641*
X00096445Y00088413*
X00094972Y00090318*
X0009337Y00092116*
X00091647Y00093797*
X0008981Y00095354*
X00087869Y0009678*
X00085833Y00098066*
X00083712Y00099207*
X00081517Y00100197*
X00079259Y00101032*
X00076948Y00101708*
X00074594Y0010222*
X00072212Y00102567*
X00069811Y00102747*
X00067216Y00037799D02*
D01*
X00069345Y00037789*
X0007147Y00037927*
X00073579Y00038212*
X00075664Y00038644*
X00077713Y00039221*
X00079717Y00039939*
X00081667Y00040795*
X00083551Y00041785*
X00085362Y00042904*
X00087091Y00044146*
X00088729Y00045507*
X00090268Y00046978*
X000917Y00048553*
X00093019Y00050224*
X00094218Y00051983*
X00095292Y00053821*
X00096235Y0005573*
X00097042Y00057699*
X00097711Y00059721*
X00098236Y00061784*
X00098616Y00063878*
X00098849Y00065995*
X00098934Y00068122*
X00098871Y0007025*
X00098659Y00072368*
X000983Y00074466*
X00097795Y00076535*
X00097147Y00078562*
X0009636Y0008054*
X00095436Y00082459*
X00094381Y00084308*
X000932Y00086079*
X00091897Y00087763*
X00090481Y00089352*
X00088957Y00090839*
X00087333Y00092215*
X00085617Y00093475*
X00083817Y00094612*
X00081943Y00095621*
X00080002Y00096497*
X00078005Y00097235*
X00075962Y00097832*
X00073882Y00098285*
X00071775Y00098592*
X00069652Y00098751*
X00069651*
X00067375Y00041796D02*
D01*
X00069225Y00041787*
X00071071Y00041907*
X00072904Y00042155*
X00074715Y00042531*
X00076495Y00043031*
X00078237Y00043655*
X0007993Y00044399*
X00081568Y00045259*
X00083141Y00046232*
X00084643Y00047311*
X00086066Y00048493*
X00087403Y00049771*
X00088648Y0005114*
X00089794Y00052591*
X00090836Y0005412*
X00091769Y00055717*
X00092588Y00057375*
X00093289Y00059087*
X0009387Y00060843*
X00094326Y00062635*
X00094657Y00064455*
X00094859Y00066294*
X00094933Y00068142*
X00094878Y00069991*
X00094694Y00071831*
X00094382Y00073655*
X00093943Y00075452*
X00093381Y00077214*
X00092696Y00078932*
X00091894Y00080599*
X00090977Y00082205*
X00089951Y00083744*
X00088819Y00085207*
X00087588Y00086588*
X00086264Y00087879*
X00084853Y00089076*
X00083362Y0009017*
X00081799Y00091158*
X0008017Y00092035*
X00078484Y00092796*
X00076749Y00093437*
X00074973Y00093956*
X00073166Y00094349*
X00071336Y00094616*
X00069491Y00094754*
X00067535Y00045793D02*
D01*
X00069106Y00045786*
X00070673Y00045887*
X00072229Y00046098*
X00073767Y00046417*
X00075279Y00046842*
X00076757Y00047372*
X00078195Y00048003*
X00079586Y00048734*
X00080921Y00049559*
X00082197Y00050476*
X00083405Y00051479*
X0008454Y00052565*
X00085596Y00053726*
X0008657Y00054959*
X00087454Y00056257*
X00088246Y00057613*
X00088942Y00059021*
X00089538Y00060474*
X0009003Y00061965*
X00090418Y00063487*
X00090698Y00065032*
X0009087Y00066593*
X00090933Y00068162*
X00090886Y00069732*
X0009073Y00071295*
X00090465Y00072843*
X00090093Y00074369*
X00089615Y00075865*
X00089034Y00077324*
X00088352Y00078739*
X00087574Y00080103*
X00086702Y00081409*
X00085742Y00082651*
X00084697Y00083824*
X00083572Y0008492*
X00082374Y00085936*
X00081109Y00086865*
X00079781Y00087704*
X00078398Y00088448*
X00076967Y00089094*
X00075493Y00089639*
X00073986Y00090079*
X00072451Y00090414*
X00070898Y0009064*
X00069332Y00090757*
X00067854Y00053786D02*
D01*
X00068867Y00053781*
X00069876Y00053847*
X00070879Y00053983*
X0007187Y00054188*
X00072844Y00054462*
X00073797Y00054803*
X00074724Y0005521*
X0007562Y00055681*
X00076481Y00056213*
X00077303Y00056804*
X00078081Y0005745*
X00078813Y0005815*
X00079494Y00058898*
X00080121Y00059693*
X00080691Y00060529*
X00081201Y00061403*
X0008165Y0006231*
X00082033Y00063247*
X00082351Y00064208*
X00082601Y00065188*
X00082781Y00066184*
X00082892Y0006719*
X00082933Y00068201*
X00082903Y00069213*
X00082802Y0007022*
X00082631Y00071218*
X00082391Y00072201*
X00082083Y00073165*
X00081709Y00074105*
X0008127Y00075017*
X00080768Y00075896*
X00080207Y00076738*
X00079588Y00077538*
X00078914Y00078294*
X0007819Y00079001*
X00077418Y00079655*
X00076602Y00080254*
X00075746Y00080795*
X00074855Y00081274*
X00073933Y00081691*
X00072983Y00082042*
X00072012Y00082325*
X00071023Y00082541*
X00070022Y00082687*
X00069012Y00082762*
Y00082763*
X00067695Y0004979D02*
D01*
X00068987Y00049784*
X00070275Y00049867*
X00071555Y00050041*
X00072819Y00050303*
X00074062Y00050652*
X00075278Y00051088*
X0007646Y00051607*
X00077603Y00052208*
X00078702Y00052886*
X0007975Y0005364*
X00080744Y00054465*
X00081677Y00055357*
X00082546Y00056313*
X00083346Y00057326*
X00084073Y00058393*
X00084725Y00059508*
X00085297Y00060666*
X00085786Y0006186*
X00086192Y00063086*
X0008651Y00064338*
X00086741Y00065608*
X00086882Y00066892*
X00086934Y00068182*
X00086895Y00069473*
X00086767Y00070758*
X00086549Y0007203*
X00086243Y00073285*
X0008585Y00074515*
X00085372Y00075714*
X00084812Y00076878*
X00084172Y00077999*
X00083456Y00079074*
X00082666Y00080095*
X00081807Y00081059*
X00080882Y00081961*
X00079897Y00082796*
X00078857Y0008356*
X00077765Y0008425*
X00076628Y00084862*
X00075451Y00085393*
X0007424Y00085841*
X00073Y00086203*
X00071739Y00086478*
X00070461Y00086664*
X00069173Y0008676*
X00069172*
X00070609Y00122731D02*
D01*
X00066666Y00122751*
X0006273Y00122496*
X00058822Y00121967*
X00054961Y00121166*
X00051164Y00120098*
X00047452Y00118768*
X00043841Y00117182*
X0004035Y00115349*
X00036995Y00113275*
X00033793Y00110974*
X00030759Y00108454*
X00027909Y00105729*
X00025255Y00102811*
X00022811Y00099716*
X0002059Y00096458*
X00018601Y00093052*
X00016854Y00089516*
X00015359Y00085868*
X00014121Y00082123*
X00013148Y00078301*
X00012443Y00074421*
X00012011Y00070501*
X00011854Y00066561*
X00011972Y00062619*
X00012364Y00058695*
X00013029Y00054808*
X00013964Y00050976*
X00015164Y0004722*
X00016623Y00043556*
X00018334Y00040003*
X00020289Y00036578*
X00022477Y00033297*
X00024889Y00030177*
X00027514Y00027233*
X00030336Y0002448*
X00033345Y00021929*
X00036524Y00019595*
X00039857Y00017489*
X0004333Y0001562*
X00046925Y00013998*
X00050624Y0001263*
X00054409Y00011524*
X00058262Y00010685*
X00062165Y00010116*
X00066097Y00009821*
X00066098Y00009822*
X00065619Y-00002167D02*
D01*
X0007054Y-00002192*
X00075451Y-00001874*
X00080327Y-00001213*
X00085145Y-00000214*
X00089882Y00001117*
X00094515Y00002777*
X0009902Y00004755*
X00103377Y00007044*
X00107563Y0000963*
X00111559Y00012503*
X00115344Y00015647*
X00118901Y00019047*
X00122212Y00022688*
X00125261Y0002655*
X00128033Y00030615*
X00130515Y00034865*
X00132694Y00039277*
X00134561Y0004383*
X00136105Y00048502*
X00137319Y00053271*
X00138198Y00058112*
X00138737Y00063004*
X00138934Y00067921*
X00138787Y00072839*
X00138297Y00077736*
X00137467Y00082586*
X001363Y00087367*
X00134803Y00092054*
X00132983Y00096626*
X00130848Y00101059*
X00128409Y00105333*
X00125678Y00109427*
X00122668Y0011332*
X00119394Y00116993*
X00115871Y00120429*
X00112118Y00123611*
X00108151Y00126524*
X00103991Y00129152*
X00099658Y00131484*
X00095173Y00133508*
X00090557Y00135215*
X00085834Y00136595*
X00081026Y00137642*
X00076156Y00138352*
X00071249Y00138719*
X00071248*
X00065778Y00001828D02*
D01*
X0007042Y00001805*
X00075052Y00002105*
X00079652Y00002728*
X00084196Y00003671*
X00088665Y00004928*
X00093034Y00006493*
X00097284Y0000836*
X00101393Y00010518*
X00105342Y00012958*
X00109111Y00015667*
X00112682Y00018633*
X00116037Y00021841*
X0011916Y00025274*
X00122036Y00028918*
X00124651Y00032753*
X00126992Y00036761*
X00129048Y00040922*
X00130808Y00045217*
X00132264Y00049624*
X0013341Y00054122*
X00134239Y00058689*
X00134747Y00063303*
X00134932Y00067941*
X00134794Y00072581*
X00134332Y00077199*
X00133549Y00081774*
X00132449Y00086284*
X00131037Y00090705*
X0012932Y00095018*
X00127306Y00099199*
X00125005Y00103231*
X00122429Y00107092*
X0011959Y00110764*
X00116501Y00114229*
X00113179Y0011747*
X00109638Y00120471*
X00105896Y00123219*
X00101973Y00125698*
X00097885Y00127898*
X00093654Y00129807*
X00089301Y00131417*
X00084845Y00132718*
X0008031Y00133706*
X00075717Y00134375*
X00071088Y00134722*
X00065938Y00005825D02*
D01*
X00070301Y00005803*
X00074654Y00006086*
X00078977Y00006671*
X00083249Y00007557*
X00087448Y00008738*
X00091555Y0001021*
X00095549Y00011964*
X00099411Y00013993*
X00103122Y00016286*
X00106664Y00018832*
X0011002Y00021619*
X00113173Y00024634*
X00116108Y00027861*
X00118812Y00031285*
X00121269Y0003489*
X00123469Y00038657*
X00125401Y00042568*
X00127056Y00046604*
X00128425Y00050746*
X00129501Y00054974*
X0013028Y00059266*
X00130758Y00063602*
X00130932Y00067961*
X00130802Y00072322*
X00130368Y00076663*
X00129632Y00080963*
X00128598Y000852*
X00127271Y00089356*
X00125657Y00093409*
X00123764Y0009734*
X00121602Y00101129*
X00119181Y00104757*
X00116512Y00108208*
X0011361Y00111465*
X00110487Y00114511*
X00107159Y00117332*
X00103643Y00119914*
X00099955Y00122244*
X00096113Y00124311*
X00092137Y00126106*
X00088045Y00127618*
X00083858Y00128842*
X00079595Y0012977*
X00075278Y00130399*
X00070929Y00130725*
X00066098Y00009822D02*
D01*
X00070181Y00009802*
X00074256Y00010066*
X00078302Y00010614*
X00082301Y00011443*
X00086231Y00012549*
X00090075Y00013926*
X00093814Y00015568*
X00097429Y00017467*
X00100902Y00019613*
X00104217Y00021997*
X00107359Y00024606*
X0011031Y00027427*
X00113057Y00030448*
X00115587Y00033653*
X00117888Y00037027*
X00119947Y00040553*
X00121755Y00044214*
X00123304Y00047992*
X00124585Y00051869*
X00125593Y00055826*
X00126322Y00059843*
X00126769Y00063902*
X00126932Y00067982*
X0012681Y00072063*
X00126404Y00076126*
X00125715Y00080151*
X00124747Y00084118*
X00123505Y00088007*
X00121994Y00091801*
X00120223Y0009548*
X00118199Y00099026*
X00115932Y00102423*
X00113435Y00105653*
X00110718Y00108701*
X00107795Y00111552*
X0010468Y00114192*
X00101389Y00116609*
X00097937Y0011879*
X00094341Y00120725*
X0009062Y00122405*
X0008679Y0012382*
X0008287Y00124965*
X00078881Y00125835*
X0007484Y00126423*
X00070769Y00126728*
X00066257Y00013819D02*
D01*
X00070061Y000138*
X00073858Y00014046*
X00077627Y00014557*
X00081352Y00015329*
X00085014Y00016359*
X00088595Y00017642*
X00092078Y00019172*
X00095446Y00020941*
X00098682Y00022941*
X00101771Y00025161*
X00104697Y00027592*
X00107447Y0003022*
X00110006Y00033034*
X00112364Y00036021*
X00114507Y00039164*
X00116425Y00042448*
X0011811Y00045859*
X00119553Y00049379*
X00120746Y00052991*
X00121685Y00056677*
X00122365Y0006042*
X00122781Y00064201*
X00122933Y00068002*
X00122819Y00071805*
X00122441Y0007559*
X00121799Y00079339*
X00120897Y00083035*
X0011974Y00086659*
X00118333Y00090193*
X00116683Y0009362*
X00114797Y00096924*
X00112686Y00100089*
X00110359Y00103098*
X00107828Y00105938*
X00105104Y00108594*
X00102203Y00111054*
X00099136Y00113305*
X00095921Y00115338*
X00092571Y0011714*
X00089103Y00118705*
X00085536Y00120024*
X00081884Y00121091*
X00078167Y001219*
X00074403Y00122449*
X00070609Y00122731*
X00066417Y00017815D02*
D01*
X00069942Y00017798*
X0007346Y00018026*
X00076953Y00018499*
X00080404Y00019214*
X00083797Y00020169*
X00087116Y00021358*
X00090343Y00022775*
X00093463Y00024414*
X00096462Y00026267*
X00099324Y00028325*
X00102036Y00030577*
X00104583Y00033013*
X00106955Y0003562*
X00109139Y00038387*
X00111125Y00041299*
X00112903Y00044343*
X00114464Y00047504*
X00115801Y00050765*
X00116907Y00054112*
X00117777Y00057528*
X00118406Y00060996*
X00118792Y00064499*
X00118933Y00068022*
X00118828Y00071545*
X00118477Y00075052*
X00117882Y00078527*
X00117047Y00081951*
X00115974Y00085309*
X0011467Y00088584*
X00113141Y0009176*
X00111394Y00094821*
X00109438Y00097753*
X00107281Y00100542*
X00104936Y00103173*
X00102413Y00105634*
X00099724Y00107913*
X00096883Y0011*
X00093903Y00111882*
X00090799Y00113553*
X00087586Y00115003*
X0008428Y00116225*
X00080896Y00117214*
X00077452Y00117964*
X00073964Y00118472*
X0007045Y00118735*
X00066736Y00025809D02*
D01*
X00069703Y00025794*
X00072663Y00025986*
X00075603Y00026385*
X00078507Y00026987*
X00081363Y0002779*
X00084156Y0002879*
X00086872Y00029983*
X00089498Y00031363*
X00092021Y00032922*
X0009443Y00034654*
X00096712Y00036549*
X00098856Y00038599*
X00100852Y00040793*
X0010269Y00043122*
X00104361Y00045573*
X00105858Y00048134*
X00107171Y00050794*
X00108296Y00053539*
X00109227Y00056355*
X0010996Y0005923*
X00110489Y00062149*
X00110814Y00065097*
X00110933Y00068061*
X00110844Y00071027*
X00110549Y00073978*
X00110049Y00076902*
X00109345Y00079784*
X00108443Y0008261*
X00107345Y00085366*
X00106058Y00088039*
X00104588Y00090615*
X00102942Y00093083*
X00101127Y0009543*
X00099153Y00097644*
X0009703Y00099715*
X00094767Y00101634*
X00092376Y00103389*
X00089868Y00104974*
X00087256Y0010638*
X00084552Y001076*
X0008177Y00108628*
X00078922Y00109461*
X00076024Y00110092*
X00073089Y00110519*
X0007013Y00110741*
X00066896Y00029806D02*
D01*
X00069584Y00029793*
X00072265Y00029967*
X00074928Y00030327*
X00077559Y00030873*
X00080146Y00031601*
X00082676Y00032507*
X00085136Y00033588*
X00087515Y00034837*
X00089801Y0003625*
X00091983Y00037818*
X00094051Y00039535*
X00095993Y00041392*
X00097801Y0004338*
X00099466Y0004549*
X0010098Y0004771*
X00102335Y0005003*
X00103525Y0005244*
X00104545Y00054926*
X00105388Y00057477*
X00106051Y00060082*
X00106531Y00062726*
X00106825Y00065397*
X00106932Y00068082*
X00106852Y00070768*
X00106585Y00073442*
X00106132Y00076091*
X00105495Y00078701*
X00104677Y00081261*
X00103683Y00083758*
X00102517Y00086179*
X00101185Y00088513*
X00099694Y00090748*
X0009805Y00092874*
X00096262Y0009488*
X00094338Y00096756*
X00092288Y00098494*
X00090122Y00100084*
X0008785Y0010152*
X00085484Y00102793*
X00083035Y00103899*
X00080514Y0010483*
X00077935Y00105584*
X00075309Y00106156*
X0007265Y00106543*
X0006997Y00106744*
X00066577Y00021812D02*
D01*
X00069823Y00021796*
X00073062Y00022006*
X00076278Y00022442*
X00079456Y00023101*
X0008258Y0002398*
X00085636Y00025074*
X00088608Y0002638*
X00091481Y00027889*
X00094242Y00029595*
X00096877Y0003149*
X00099374Y00033563*
X0010172Y00035806*
X00103904Y00038207*
X00105915Y00040755*
X00107744Y00043437*
X00109381Y00046239*
X00110818Y00049149*
X00112049Y00052152*
X00113067Y00055234*
X00113868Y00058379*
X00114448Y00061573*
X00114803Y00064799*
X00114933Y00068042*
X00114836Y00071286*
X00114513Y00074516*
X00113965Y00077715*
X00113196Y00080868*
X00112208Y0008396*
X00111008Y00086975*
X00109599Y00089899*
X00107991Y00092718*
X00106189Y00095418*
X00104204Y00097986*
X00102044Y00100409*
X00099721Y00102675*
X00097245Y00104774*
X00094629Y00106695*
X00091885Y00108429*
X00089027Y00109967*
X00086069Y00111302*
X00083024Y00112427*
X00079909Y00113337*
X00076738Y00114028*
X00073526Y00114496*
X0007029Y00114738*
X00065299Y-0001016D02*
D01*
X00070778Y-00010188*
X00076246Y-00009833*
X00081676Y-00009098*
X00087041Y-00007986*
X00092315Y-00006502*
X00097474Y-00004654*
X0010249Y-0000245*
X00107341Y00000096*
X00112002Y00002976*
X00116451Y00006175*
X00120666Y00009675*
X00124626Y00013462*
X00128313Y00017515*
X00131708Y00021816*
X00134795Y00026343*
X00137558Y00031074*
X00139985Y00035986*
X00142063Y00041056*
X00143782Y00046259*
X00145135Y00051569*
X00146113Y0005696*
X00146713Y00062406*
X00146932Y00067881*
X00146768Y00073357*
X00146223Y00078809*
X00145299Y0008421*
X00144Y00089533*
X00142333Y00094753*
X00140306Y00099843*
X00137929Y0010478*
X00135213Y00109539*
X00132172Y00114096*
X0012882Y00118431*
X00125175Y00122521*
X00121252Y00126347*
X00117073Y0012989*
X00112656Y00133133*
X00108024Y0013606*
X001032Y00138656*
X00098205Y0014091*
X00093963Y00142507*
X00065459Y-00006164D02*
D01*
X00070659Y-0000619*
X00075848Y-00005854*
X00081002Y-00005156*
X00086093Y-000041*
X00091099Y-00002692*
X00095994Y-00000938*
X00100755Y00001152*
X00105359Y0000357*
X00109783Y00006303*
X00114005Y00009339*
X00118005Y00012661*
X00121764Y00016254*
X00125263Y00020101*
X00128485Y00024183*
X00131414Y00028479*
X00134037Y00032969*
X0013634Y00037632*
X00138312Y00042443*
X00139944Y00047381*
X00141227Y0005242*
X00142156Y00057536*
X00142725Y00062705*
X00142933Y00067901*
X00142777Y00073099*
X0014226Y00078273*
X00141383Y00083399*
X0014015Y0008845*
X00138568Y00093404*
X00136644Y00098235*
X00134388Y0010292*
X00131811Y00107437*
X00128925Y00111762*
X00125744Y00115876*
X00122284Y00119758*
X00118561Y00123389*
X00114595Y00126751*
X00110403Y00129829*
X00106007Y00132607*
X00101428Y00135071*
X00096688Y0013721*
X00091811Y00139013*
X00086819Y00140471*
X00081739Y00141578*
X00076593Y00142328*
X00071408Y00142716*
X00058087Y00071563D02*
X00062563D01*
X00093961Y0014251D02*
Y00149001D01*
Y0014251D02*
X00093963Y00142507D01*
G54D19*
X00137128Y00137128D03*
Y0D03*
X0D03*
Y00137128D03*
G54D20*
X-00027199Y0D02*
D01*
X-00027133Y-00001897*
X-00026935Y-00003785*
X-00026605Y-00005655*
X-00026146Y-00007497*
X-00025559Y-00009302*
X-00024848Y-00011063*
X-00024015Y-00012769*
X-00023066Y-00014413*
X-00022005Y-00015987*
X-00020836Y-00017483*
X-00019565Y-00018894*
X-000182Y-00020213*
X-00016745Y-00021433*
X-0001521Y-00022549*
X-00013599Y-00023555*
X-00011923Y-00024446*
X-00010189Y-00025219*
X-00008405Y-00025868*
X-0000658Y-00026391*
X-00004723Y-00026786*
X-00002843Y-0002705*
X-00000949Y-00027183*
X0Y-00027199*
X00137128D02*
D01*
X00139026Y-00027133*
X00140914Y-00026935*
X00142784Y-00026605*
X00144626Y-00026146*
X00146431Y-00025559*
X00148192Y-00024848*
X00149898Y-00024015*
X00151542Y-00023066*
X00153116Y-00022005*
X00154612Y-00020836*
X00156023Y-00019565*
X00157342Y-000182*
X00158562Y-00016745*
X00159678Y-0001521*
X00160684Y-00013599*
X00161576Y-00011923*
X00162348Y-00010189*
X00162997Y-00008405*
X0016352Y-0000658*
X00163915Y-00004723*
X00164179Y-00002843*
X00164312Y-00000949*
X00164328Y0*
Y00137128D02*
D01*
X00164262Y00139026*
X00164064Y00140914*
X00163734Y00142784*
X00163275Y00144626*
X00162688Y00146431*
X00161977Y00148192*
X00161144Y00149898*
X00160195Y00151542*
X00159134Y00153116*
X00157965Y00154612*
X00156694Y00156023*
X00155329Y00157342*
X00153874Y00158562*
X00152339Y00159678*
X00150728Y00160684*
X00149052Y00161576*
X00147318Y00162348*
X00145534Y00162997*
X00143709Y0016352*
X00141852Y00163915*
X00139972Y00164179*
X00138078Y00164312*
X00137128Y00164328*
X0D02*
D01*
X-00001897Y00164262*
X-00003785Y00164064*
X-00005655Y00163734*
X-00007497Y00163275*
X-00009302Y00162688*
X-00011063Y00161977*
X-00012769Y00161144*
X-00014413Y00160195*
X-00015987Y00159134*
X-00017483Y00157965*
X-00018894Y00156694*
X-00020213Y00155329*
X-00021433Y00153874*
X-00022549Y00152339*
X-00023555Y00150728*
X-00024446Y00149052*
X-00025219Y00147318*
X-00025868Y00145534*
X-00026391Y00143709*
X-00026786Y00141852*
X-0002705Y00139972*
X-00027183Y00138078*
X-00027199Y00137128*
G54D21*
X00095109Y00189107D03*
G54D22*
X0006871Y00206834D03*
G54D23*
X00041155Y00187051D03*
G54D24*
X-0002625Y00066711D03*
G54D25*
X00019242Y00164278D03*
G54D26*
X00068621Y-00027682D03*
G54D27*
X001648Y00068735D03*
G54D28*
X0011643Y00162494D03*
G54D29*
X00053858Y00189187D03*
X00046406Y00189128D03*
X0006131Y00189247D03*
X00061191Y00204151D03*
X00061251Y00196699D03*
X00046287Y00204032D03*
X00046346Y0019658D03*
X00053798Y00196639D03*
X00053739Y00204092D03*
X00068762Y00189307D03*
X00068702Y00196759D03*
X00076155Y00196818D03*
X00076214Y00189366D03*
X00076095Y0020427D03*
X00068643Y00204211D03*
X00083666Y00189426D03*
X00083607Y00196878D03*
X00091059Y00196938D03*
X00091118Y00189486D03*
X00090999Y0020439D03*
X00083547Y0020433D03*
X00113622Y00162586D03*
X00106172D03*
X00106234Y00155194D03*
X00106295Y00147801D03*
X00113745D03*
X00121195D03*
X00113684Y00155194D03*
X00121072Y00162586D03*
X00121134Y00155194D03*
X00128584D03*
X00128522Y00162586D03*
X00135972D03*
X00015932Y00147801D03*
X00000908Y00162586D03*
X0000842Y00155194D03*
X00023381Y00147801D03*
X00030832D03*
X0002332Y00155194D03*
X0001587D03*
X00015808Y00162586D03*
X00008358D03*
X00023258D03*
X00030708D03*
X0003077Y00155194D03*
X-00010672Y00015932D03*
X-00025457Y00000908D03*
X-00018065Y0000842D03*
X-00010672Y00023381D03*
Y00030832D03*
X-00018065Y0002332D03*
Y0001587D03*
X-00025457Y00015808D03*
Y00008358D03*
Y00023258D03*
Y00030708D03*
X-00018065Y0003077D03*
Y0003822D03*
X-00025457Y00038158D03*
Y00045608D03*
X-00018065Y0004567D03*
Y0005312D03*
X-00025457Y00053058D03*
Y00060508D03*
X-00018065Y0006057D03*
Y0006802D03*
X-00025457Y00067958D03*
Y00075408D03*
X-00018065Y0007547D03*
X-00025457Y00135972D03*
Y00128522D03*
X-00018065Y00128584D03*
Y00121134D03*
X-00025457Y00121072D03*
X-00018065Y00113684D03*
X-00010672Y00121195D03*
Y00113745D03*
Y00106295D03*
X-00018065Y00106234D03*
X-00025457Y00106172D03*
Y00098722D03*
X-00018065Y00098784D03*
Y00091334D03*
X-00025457Y00091272D03*
Y00083822D03*
X-00018065Y00083884D03*
X-00025457Y00113622D03*
X00147801Y00121195D03*
X00162586Y00136219D03*
X00155194Y00128707D03*
X00147801Y00113745D03*
Y00106295D03*
X00155194Y00113807D03*
Y00121257D03*
X00162586Y00121319D03*
Y00128769D03*
Y00113869D03*
Y00106419D03*
X00155194Y00106357D03*
Y00098907D03*
X00162586Y00098969D03*
Y00091519D03*
X00155194Y00091457D03*
Y00084007D03*
X00162586Y00084069D03*
Y00076619D03*
X00155194Y00076557D03*
Y00069107D03*
X00162586Y00069169D03*
Y00061719D03*
X00155194Y00061657D03*
X00162586Y00001155D03*
Y00008605D03*
X00155194Y00008543D03*
Y00015993D03*
X00162586Y00016055D03*
X00155194Y00023443D03*
X00147801Y00015932D03*
Y00023381D03*
Y00030832D03*
X00155194Y00030893D03*
X00162586Y00030955D03*
Y00038405D03*
X00155194Y00038343D03*
Y00045793D03*
X00162586Y00045855D03*
Y00053305D03*
X00155194Y00053243D03*
X00162586Y00023505D03*
X00023505Y-00025457D03*
X00030955D03*
X00030893Y-00018065D03*
X00030832Y-00010672D03*
X00023381D03*
X00015932D03*
X00023443Y-00018065D03*
X00016055Y-00025457D03*
X00015993Y-00018065D03*
X00008543D03*
X00008605Y-00025457D03*
X00001155D03*
X00106357Y-00018065D03*
X00106419Y-00025457D03*
X00113869D03*
X00128769D03*
X00121319D03*
X00121257Y-00018065D03*
X00113807D03*
X00106295Y-00010672D03*
X00113745D03*
X00093961Y00149001D03*
X00128707Y-00018065D03*
X00136219Y-00025457D03*
X00121195Y-00010672D03*
X00068563Y00153435D03*
Y00159435D03*
Y00165435D03*
Y00171435D03*
Y00177435D03*
Y00071563D03*
Y00065563D03*
X00062563D03*
Y00071563D03*
X00074563Y00065563D03*
Y00071563D03*
M02*