%FSTAX44Y44*%
%MOMM*%
%SFA1B1*%

%IPPOS*%
%ADD10C,0.200000*%
%ADD19C,2.199996*%
%ADD29C,0.499999*%
%LNpcb1-1*%
%LPD*%
G36*
X00094944Y00169365D02*
X00095258Y00167785D01*
X00096153Y00166445*
X00097493Y0016555*
X00099073Y00165236*
X00137128*
X00137269Y00165264*
X00141531Y00164928*
X00145826Y00163897*
X00149906Y00162207*
X00153672Y00159899*
X00157031Y00157031*
X00159899Y00153672*
X00162207Y00149906*
X00163897Y00145826*
X00164928Y00141531*
X00165264Y00137269*
X00165236Y00137128*
Y0*
X00165264Y-0000014*
X00164928Y-00004402*
X00163897Y-00008697*
X00162207Y-00012778*
X00159899Y-00016543*
X00157031Y-00019902*
X00153672Y-0002277*
X00149906Y-00025078*
X00145826Y-00026768*
X00141531Y-000278*
X00137269Y-00028135*
X00137128Y-00028107*
X0*
X-0000014Y-00028135*
X-00004402Y-000278*
X-00008697Y-00026768*
X-00012778Y-00025078*
X-00016543Y-0002277*
X-00019902Y-00019902*
X-0002277Y-00016543*
X-00025078Y-00012778*
X-00026768Y-00008697*
X-000278Y-00004402*
X-00028135Y-0000014*
X-00028107Y0*
Y00137128*
X-00028135Y00137269*
X-000278Y00141531*
X-00026768Y00145826*
X-00025078Y00149906*
X-0002277Y00153672*
X-00019902Y00157031*
X-00016543Y00159899*
X-00012778Y00162207*
X-00008697Y00163897*
X-00004402Y00164928*
X-0000014Y00165264*
X0Y00165236*
X00038054*
X00039634Y0016555*
X00040974Y00166445*
X00041869Y00167785*
X00042183Y00169365*
Y0020725*
X00094944*
Y00169365*
G37*
%LNpcb1-2*%
%LPC*%
G36*
X00068563Y00182533D02*
X00064273D01*
X00062322Y00182145*
X00060668Y0018104*
X00057595Y00177967*
X0005649Y00176313*
X00056102Y00174362*
Y00153239*
X00055668Y00152805*
X00052044Y00152268*
X00044085Y00150274*
X00036361Y0014751*
X00028944Y00144003*
X00021907Y00139785*
X00015318Y00134898*
X00009239Y00129388*
X00003729Y00123309*
X-00001156Y00116719*
X-00005374Y00109683*
X-00008882Y00102266*
X-00011645Y00094541*
X-00013639Y00086583*
X-00014843Y00078468*
X-00015245Y00070273*
X-00014843Y00062079*
X-00013639Y00053964*
X-00011645Y00046005*
X-00008882Y00038281*
X-00005374Y00030864*
X-00001156Y00023827*
X00003729Y00017238*
X00009239Y00011159*
X00015318Y00005649*
X00021907Y00000762*
X00028944Y-00003454*
X00036361Y-00006962*
X00044085Y-00009725*
X00052044Y-00011719*
X00060159Y-00012923*
X00068353Y-00013325*
X0007113Y-00013189*
X00071487Y-0001326*
X0007169Y-0001322*
X0007208Y-00013142*
X00076431Y-00012928*
X00084352Y-00011753*
X0009212Y-00009808*
X0009966Y-0000711*
X00106898Y-00003686*
X00113767Y00000429*
X00120199Y00005199*
X00126132Y00010576*
X0013151Y0001651*
X0013628Y00022941*
X00140397Y0002981*
X0014382Y00037049*
X00146518Y00044588*
X00148464Y00052356*
X00149639Y00060277*
X00150032Y00068275*
X00149639Y00076273*
X00148464Y00084194*
X00146518Y00091962*
X0014382Y00099501*
X00140397Y0010674*
X0013628Y00113609*
X0013151Y0012004*
X00126132Y00125974*
X00120199Y00131351*
X00113767Y00136122*
X00106898Y00140238*
X0009966Y00143662*
X0009754Y0014442*
X00097211Y00145887*
X00097776Y00146452*
X00098461Y00148106*
Y00149896*
X00097776Y0015155*
X0009651Y00152816*
X00094856Y00153501*
X00093066*
X00091412Y00152816*
X00090146Y0015155*
X00089461Y00149896*
Y00148336*
X00088544Y00147255*
X00084352Y00148305*
X00076431Y0014948*
X00072793Y00149659*
X00072336Y00150844*
X00072378Y00150886*
X00073063Y0015254*
Y00154331*
X00072378Y00155984*
X00071927Y00156435*
X00072378Y00156886*
X00073063Y0015854*
Y0016033*
X00072378Y00161984*
X00071927Y00162435*
X00072378Y00162886*
X00073063Y0016454*
Y00166331*
X00072378Y00167984*
X00071927Y00168435*
X00072378Y00168886*
X00073063Y0017054*
Y00172331*
X00072378Y00173984*
X00072314Y00174049*
X00073273Y00175484*
X00073661Y00177435*
X00073273Y00179386*
X00072168Y0018104*
X00070514Y00182145*
X00068563Y00182533*
G37*
%LNpcb1-3*%
%LPD*%
G36*
X00066778Y00175685D02*
X00066626Y00175828D01*
X00066463Y00175955*
X00066289Y00176068*
X00066104Y00176165*
X00065909Y00176248*
X00065703Y00176315*
X00065486Y00176368*
X00065259Y00176405*
X00065021Y00176428*
X00064772Y00176435*
Y00178435*
X00065021Y00178443*
X00065259Y00178465*
X00065486Y00178503*
X00065703Y00178555*
X00065909Y00178623*
X00066104Y00178705*
X00066289Y00178803*
X00066463Y00178915*
X00066626Y00179043*
X00066778Y00179185*
Y00175685*
G37*
G54D10*
X00080931Y00068523D02*
D01*
X00080924Y00068735*
X00080902Y00068947*
X00080865Y00069155*
X00080814Y00069361*
X00080748Y00069563*
X00080669Y0006976*
X00080575Y00069951*
X00080469Y00070134*
X00080351Y0007031*
X0008022Y00070477*
X00080078Y00070635*
X00079925Y00070782*
X00079763Y00070919*
X00079591Y00071044*
X00079411Y00071156*
X00079224Y00071256*
X0007903Y00071342*
X00078831Y00071415*
X00078627Y00071473*
X00078419Y00071517*
X00078209Y00071547*
X00077998Y00071561*
X0007789Y00071563*
X00069092Y00051788D02*
D01*
X00070241Y00051874*
X00071381Y00052041*
X00072506Y00052286*
X00073611Y00052609*
X00074692Y00053008*
X00075741Y00053482*
X00076756Y00054028*
X00077729Y00054643*
X00078657Y00055325*
X00079536Y00056069*
X0008036Y00056873*
X00081127Y00057733*
X00081831Y00058644*
X0008247Y00059602*
X00083041Y00060603*
X00083541Y0006164*
X00083967Y0006271*
X00084317Y00063807*
X0008459Y00064926*
X00084784Y00066061*
X00084899Y00067207*
X00084933Y00068359*
X00084887Y00069509*
X00084761Y00070654*
X00084555Y00071787*
X00084271Y00072903*
X0008391Y00073997*
X00083473Y00075063*
X00082963Y00076095*
X00082382Y0007709*
X00081733Y00078041*
X0008102Y00078945*
X00080245Y00079797*
X00079412Y00080593*
X00078526Y00081329*
X00077591Y00082001*
X00076611Y00082606*
X00075592Y00083142*
X00074537Y00083605*
X00073453Y00083993*
X00072344Y00084305*
X00071217Y00084539*
X00070075Y00084694*
X00068926Y00084768*
X00067775Y00084762*
X00067615Y00088759D02*
D01*
X00066328Y00088663*
X0006505Y00088477*
X00063788Y00088202*
X00062549Y0008784*
X00061338Y00087392*
X00060161Y00086861*
X00059024Y00086249*
X00057932Y00085559*
X00056891Y00084795*
X00055906Y0008396*
X00054982Y00083058*
X00054123Y00082094*
X00053333Y00081072*
X00052616Y00079998*
X00051976Y00078877*
X00051416Y00077713*
X00050938Y00076514*
X00050546Y00075284*
X0005024Y00074029*
X00050022Y00072757*
X00049893Y00071472*
X00049855Y00070181*
X00049906Y00068891*
X00050048Y00067607*
X00050279Y00066337*
X00050597Y00065085*
X00051002Y00063859*
X00051492Y00062665*
X00052064Y00061507*
X00052715Y00060392*
X00053443Y00059325*
X00054243Y00058312*
X00055112Y00057356*
X00056045Y00056464*
X00057039Y00055639*
X00058087Y00054885*
X00059186Y00054207*
X00060329Y00053606*
X00061511Y00053087*
X00062727Y00052651*
X0006397Y00052302*
X00065234Y0005204*
X00066513Y00051866*
X00067802Y00051783*
X00069092Y00051788*
X00071487Y-00008162D02*
D01*
X00076812Y-00007763*
X00082096Y-00006993*
X00087313Y-00005857*
X00092438Y-00004359*
X00097447Y-00002508*
X00102314Y-00000312*
X00107016Y00002217*
X0011153Y0000507*
X00115834Y0000823*
X00119907Y00011683*
X00123729Y00015411*
X00127282Y00019397*
X00130548Y00023622*
X00133512Y00028063*
X00136158Y00032701*
X00138475Y00037512*
X0014045Y00042472*
X00142075Y00047559*
X00143341Y00052746*
X00144242Y0005801*
X00144773Y00063323*
X00144932Y0006866*
X00144719Y00073995*
X00144134Y00079303*
X00143181Y00084556*
X00141863Y00089731*
X00140187Y00094801*
X00138162Y00099741*
X00135798Y00104529*
X00133104Y0010914*
X00130097Y00113551*
X00126788Y00117742*
X00123195Y00121693*
X00119336Y00125383*
X00115228Y00128794*
X00110892Y00131911*
X0010635Y00134718*
X00101623Y00137201*
X00096734Y00139348*
X00091707Y00141149*
X00086567Y00142595*
X00081339Y00143679*
X00076047Y00144395*
X00070719Y00144741*
X00065379Y00144714*
X00071328Y-00004165D02*
D01*
X00076375Y-00003787*
X00081382Y-00003057*
X00086327Y-0000198*
X00091184Y-00000561*
X0009593Y00001192*
X00100543Y00003274*
X00104999Y00005672*
X00109277Y00008375*
X00113356Y0001137*
X00117216Y00014642*
X00120838Y00018176*
X00124206Y00021954*
X00127301Y00025957*
X00130109Y00030166*
X00132617Y00034562*
X00134813Y00039121*
X00136685Y00043822*
X00138225Y00048643*
X00139424Y00053559*
X00140278Y00058547*
X00140781Y00063582*
X00140932Y0006864*
X0014073Y00073697*
X00140176Y00078727*
X00139272Y00083706*
X00138023Y0008861*
X00136435Y00093415*
X00134516Y00098097*
X00132275Y00102634*
X00129722Y00107004*
X00126872Y00111184*
X00123736Y00115156*
X00120331Y001189*
X00116673Y00122397*
X00112781Y0012563*
X00108672Y00128584*
X00104367Y00131244*
X00099887Y00133597*
X00095254Y00135632*
X0009049Y00137339*
X00085618Y00138709*
X00080663Y00139736*
X00075649Y00140415*
X00070599Y00140743*
X00065539Y00140717*
X00058184Y00148112D02*
D01*
X00052779Y00147213*
X0004745Y0014594*
X00042223Y00144297*
X00037123Y00142294*
X00032175Y0013994*
X00027404Y00137247*
X00022832Y00134227*
X00018481Y00130896*
X00014374Y00127269*
X0001053Y00123365*
X00006967Y00119202*
X00003703Y00114801*
X00000755Y00110183*
X-00001863Y0010537*
X-0000414Y00100386*
X-00006065Y00095256*
X-00007626Y00090004*
X-00008817Y00084656*
X-00009632Y00079237*
X-00010068Y00073776*
X-00010121Y00068297*
X-00009792Y00062827*
X-00009082Y00057394*
X-00007995Y00052024*
X-00006536Y00046742*
X-00004712Y00041575*
X-00002532Y00036549*
X-00000007Y00031686*
X0000285Y00027011*
X00006027Y00022547*
X00009508Y00018316*
X00013276Y00014338*
X00017312Y00010632*
X00021597Y00007217*
X00026109Y00004109*
X00030828Y00001323*
X00035729Y-00001125*
X00040789Y-00003227*
X00045983Y-00004971*
X00051287Y-00006348*
X00056673Y-00007352*
X00062116Y-00007978*
X0006759Y-00008222*
X00071487Y-00008162*
X00065858Y00132724D02*
D01*
X00061508Y00132398*
X00057191Y00131769*
X00052929Y00130841*
X00048742Y00129617*
X0004465Y00128105*
X00040673Y0012631*
X00036832Y00124243*
X00033144Y00121913*
X00029628Y00119331*
X000263Y0011651*
X00023177Y00113464*
X00020275Y00110208*
X00017606Y00106756*
X00015185Y00103128*
X00013023Y00099339*
X0001113Y00095408*
X00009516Y00091355*
X00008189Y00087199*
X00007155Y00082961*
X00006419Y00078662*
X00005985Y00074321*
X00005854Y0006996*
X00006028Y00065601*
X00006506Y00061265*
X00007285Y00056973*
X00008362Y00052745*
X00009731Y00048603*
X00011385Y00044567*
X00013317Y00040656*
X00015518Y00036889*
X00017975Y00033284*
X00020678Y0002986*
X00023613Y00026633*
X00026767Y00023618*
X00030123Y00020831*
X00033665Y00018285*
X00037376Y00015992*
X00041238Y00013963*
X00045232Y00012209*
X00049339Y00010737*
X00053538Y00009556*
X0005781Y0000867*
X00062133Y00008085*
X00066486Y00007802*
X00070848Y00007824*
X00070849Y00007823*
X00071168Y-00000168D02*
D01*
X00075936Y00000188*
X00080667Y00000877*
X00085339Y00001895*
X00089928Y00003236*
X00094413Y00004894*
X00098771Y0000686*
X00102981Y00009126*
X00107023Y0001168*
X00110877Y0001451*
X00114524Y00017601*
X00117947Y0002094*
X00121128Y00024509*
X00124053Y00028292*
X00126706Y00032269*
X00129076Y00036422*
X0013115Y00040729*
X00132919Y00045171*
X00134374Y00049726*
X00135507Y00054371*
X00136313Y00059083*
X00136789Y00063841*
X00136932Y0006862*
X00136741Y00073397*
X00136217Y0007815*
X00135364Y00082854*
X00134184Y00087488*
X00132683Y00092027*
X0013087Y00096451*
X00128752Y00100738*
X00126341Y00104866*
X00123647Y00108817*
X00120685Y0011257*
X00117468Y00116106*
X00114012Y0011941*
X00110334Y00122465*
X00106452Y00125256*
X00102384Y00127769*
X00098151Y00129993*
X00093774Y00131915*
X00089273Y00133528*
X0008467Y00134823*
X00079989Y00135793*
X00075251Y00136435*
X00070479Y00136744*
X00065698Y0013672*
X00070529Y00015817D02*
D01*
X00074184Y00016091*
X0007781Y00016619*
X0008139Y000174*
X00084908Y00018427*
X00088345Y00019698*
X00091685Y00021205*
X00094912Y00022942*
X00098009Y00024899*
X00100963Y00027068*
X00103758Y00029438*
X00106382Y00031996*
X0010882Y00034732*
X00111061Y00037631*
X00113095Y00040679*
X00114911Y00043861*
X00116501Y00047163*
X00117857Y00050568*
X00118972Y00054058*
X0011984Y00057618*
X00120458Y0006123*
X00120823Y00064876*
X00120932Y00068539*
X00120786Y00072201*
X00120385Y00075843*
X00119731Y00079449*
X00118826Y00083*
X00117676Y00086479*
X00116286Y0008987*
X00114663Y00093155*
X00112815Y0009632*
X00110751Y00099347*
X0010848Y00102223*
X00106015Y00104934*
X00103366Y00107466*
X00100547Y00109808*
X00097572Y00111947*
X00094454Y00113873*
X0009121Y00115577*
X00087855Y00117051*
X00084405Y00118287*
X00080878Y00119279*
X0007729Y00120023*
X00073658Y00120515*
X00070002Y00120752*
X00066337Y00120733*
X00070849Y00007823D02*
D01*
X0007506Y00008139*
X00079239Y00008748*
X00083365Y00009646*
X00087419Y00010831*
X0009138Y00012295*
X00095229Y00014032*
X00098947Y00016033*
X00102517Y00018289*
X00105921Y00020788*
X00109142Y00023519*
X00112165Y00026468*
X00114975Y0002962*
X00117558Y00032961*
X00119902Y00036473*
X00121995Y00040141*
X00123827Y00043946*
X00125389Y00047869*
X00126674Y00051891*
X00127675Y00055994*
X00128387Y00060156*
X00128808Y00064358*
X00128934Y00068579*
X00128765Y00072799*
X00128303Y00076996*
X00127549Y00081151*
X00126506Y00085243*
X00125181Y00089253*
X0012358Y0009316*
X0012171Y00096946*
X0011958Y00100593*
X00117201Y00104082*
X00114584Y00107396*
X00111743Y0011052*
X00108691Y00113438*
X00105442Y00116137*
X00102013Y00118601*
X00098421Y00120821*
X00094683Y00122785*
X00090816Y00124483*
X00086841Y00125908*
X00082776Y00127051*
X00078641Y00127909*
X00074456Y00128475*
X00070242Y00128749*
X00066019Y00128727*
X00066018*
X00069731Y00035801D02*
D01*
X00071994Y00035971*
X00074238Y00036298*
X00076455Y00036781*
X00078632Y00037417*
X0008076Y00038204*
X00082828Y00039137*
X00084825Y00040212*
X00086743Y00041424*
X00088571Y00042766*
X00090302Y00044233*
X00091925Y00045817*
X00093435Y00047511*
X00094822Y00049305*
X00096081Y00051192*
X00097206Y00053162*
X0009819Y00055206*
X00099029Y00057314*
X00099719Y00059475*
X00100257Y00061679*
X00100639Y00063915*
X00100865Y00066172*
X00100933Y00068439*
X00100842Y00070706*
X00100594Y00072961*
X00100189Y00075193*
X00099629Y00077391*
X00098917Y00079545*
X00098056Y00081644*
X00097052Y00083678*
X00095908Y00085636*
X0009463Y00087511*
X00093224Y00089291*
X00091698Y00090969*
X00090058Y00092537*
X00088313Y00093986*
X00086471Y0009531*
X00084541Y00096503*
X00082533Y00097558*
X00080456Y0009847*
X0007832Y00099235*
X00076137Y00099849*
X00073916Y0010031*
X00071668Y00100614*
X00069404Y00100761*
X00067136Y00100749*
X00069571Y00039798D02*
D01*
X00071555Y00039947*
X00073524Y00040234*
X00075467Y00040657*
X00077377Y00041215*
X00079242Y00041905*
X00081056Y00042723*
X00082807Y00043666*
X00084489Y00044729*
X00086092Y00045906*
X0008761Y00047192*
X00089034Y00048581*
X00090357Y00050066*
X00091574Y0005164*
X00092678Y00053295*
X00093664Y00055023*
X00094527Y00056815*
X00095263Y00058663*
X00095868Y00060558*
X0009634Y0006249*
X00096675Y00064451*
X00096873Y0006643*
X00096933Y00068419*
X00096853Y00070407*
X00096635Y00072384*
X0009628Y00074341*
X00095789Y00076269*
X00095165Y00078158*
X00094411Y00079998*
X00093529Y00081782*
X00092526Y00083499*
X00091405Y00085143*
X00090173Y00086704*
X00088834Y00088176*
X00087397Y00089551*
X00085866Y00090822*
X00084251Y00091983*
X00082559Y00093028*
X00080798Y00093953*
X00078976Y00094753*
X00077104Y00095424*
X00075189Y00095963*
X00073241Y00096367*
X0007127Y00096634*
X00069285Y00096762*
X00067295Y00096752*
X0007021Y00023811D02*
D01*
X00073308Y00024044*
X00076381Y00024491*
X00079416Y00025153*
X00082398Y00026024*
X00085311Y00027101*
X00088142Y00028378*
X00090877Y0002985*
X00093503Y00031509*
X00096007Y00033348*
X00098376Y00035357*
X001006Y00037525*
X00102666Y00039844*
X00104566Y00042301*
X0010629Y00044885*
X0010783Y00047583*
X00109177Y00050381*
X00110326Y00053267*
X00111271Y00056226*
X00112007Y00059243*
X00112531Y00062305*
X00112841Y00065396*
X00112933Y00068501*
X00112809Y00071604*
X00112469Y00074692*
X00111914Y00077748*
X00111148Y00080758*
X00110173Y00083707*
X00108995Y00086581*
X00107619Y00089366*
X00106053Y00092048*
X00104303Y00094614*
X00102378Y00097052*
X00100288Y0009935*
X00098043Y00101496*
X00095654Y00103481*
X00093132Y00105294*
X00090489Y00106926*
X00087739Y00108371*
X00084895Y0010962*
X00081971Y00110668*
X00078981Y00111509*
X0007594Y00112139*
X00072862Y00112556*
X00069762Y00112757*
X00066657Y00112739*
X0007005Y00027807D02*
D01*
X00072869Y00028019*
X00075667Y00028426*
X00078429Y00029028*
X00081142Y00029821*
X00083794Y00030801*
X0008637Y00031964*
X0008886Y00033303*
X0009125Y00034814*
X00093528Y00036487*
X00095684Y00038314*
X00097708Y00040288*
X00099589Y00042399*
X00101318Y00044635*
X00102887Y00046986*
X00104288Y00049442*
X00105515Y00051989*
X0010656Y00054615*
X0010742Y00057308*
X0010809Y00060054*
X00108567Y00062841*
X00108849Y00065653*
X00108933Y00068479*
X0010882Y00071304*
X00108511Y00074114*
X00108006Y00076895*
X00107308Y00079634*
X00106421Y00082319*
X00105349Y00084934*
X00104097Y00087469*
X00102671Y0008991*
X00101079Y00092245*
X00099327Y00094464*
X00097425Y00096555*
X00095382Y00098509*
X00093207Y00100315*
X00090912Y00101965*
X00088507Y00103451*
X00086004Y00104766*
X00083416Y00105903*
X00080755Y00106856*
X00078033Y00107621*
X00075266Y00108195*
X00072464Y00108575*
X00069643Y00108757*
X00066816Y00108743*
X00069891Y00031804D02*
D01*
X00072432Y00031995*
X00074953Y00032362*
X00077442Y00032904*
X00079888Y00033619*
X00082277Y00034502*
X000846Y0003555*
X00086843Y00036757*
X00088997Y00038118*
X0009105Y00039626*
X00092994Y00041273*
X00094817Y00043053*
X00096513Y00044954*
X00098071Y0004697*
X00099485Y00049089*
X00100748Y00051302*
X00101853Y00053597*
X00102796Y00055964*
X00103571Y00058391*
X00104175Y00060866*
X00104604Y00063377*
X00104858Y00065912*
X00104934Y00068459*
X00104832Y00071004*
X00104553Y00073537*
X00104098Y00076043*
X00103469Y00078512*
X0010267Y00080931*
X00101704Y00083289*
X00100576Y00085573*
X00099291Y00087773*
X00097856Y00089878*
X00096277Y00091877*
X00094563Y00093762*
X00092721Y00095523*
X00090761Y0009715*
X00088693Y00098637*
X00086525Y00099977*
X0008427Y00101161*
X00081937Y00102186*
X00079539Y00103045*
X00077086Y00103735*
X00074592Y00104252*
X00072067Y00104594*
X00069525Y00104759*
X00066977Y00104746*
X00066976*
X00067775Y00084762D02*
D01*
X00066766Y00084687*
X00065765Y00084541*
X00064776Y00084325*
X00063804Y00084041*
X00062855Y00083691*
X00061933Y00083274*
X00061042Y00082795*
X00060186Y00082254*
X0005937Y00081655*
X00058598Y00081001*
X00057874Y00080294*
X000572Y00079538*
X00056581Y00078738*
X00056019Y00077896*
X00055518Y00077017*
X00055079Y00076105*
X00054704Y00075165*
X00054397Y00074201*
X00054157Y00073218*
X00053986Y0007222*
X00053885Y00071213*
X00053855Y00070201*
X00053896Y0006919*
X00054006Y00068184*
X00054187Y00067188*
X00054437Y00066208*
X00054754Y00065247*
X00055138Y0006431*
X00055586Y00063403*
X00056097Y00062529*
X00056667Y00061693*
X00057294Y00060898*
X00057975Y0006015*
X00058707Y0005945*
X00059485Y00058804*
X00060307Y00058213*
X00061168Y00057681*
X00062064Y0005721*
X0006299Y00056804*
X00063943Y00056462*
X00064918Y00056188*
X00065908Y00055983*
X00066911Y00055847*
X00067921Y00055781*
X00068932Y00055785*
X00067455Y00092756D02*
D01*
X00065889Y00092639*
X00064335Y00092413*
X00062801Y00092078*
X00061293Y00091638*
X0005982Y00091093*
X00058389Y00090447*
X00057006Y00089703*
X00055678Y00088864*
X00054412Y00087935*
X00053214Y00086919*
X0005209Y00085823*
X00051045Y0008465*
X00050084Y00083408*
X00049213Y00082102*
X00048435Y00080738*
X00047753Y00079323*
X00047172Y00077864*
X00046694Y00076368*
X00046322Y00074842*
X00046057Y00073294*
X00045901Y00071731*
X00045854Y00070161*
X00045916Y00068592*
X00046088Y00067031*
X00046369Y00065486*
X00046756Y00063964*
X00047249Y00062473*
X00047845Y0006102*
X0004854Y00059612*
X00049332Y00058256*
X00050217Y00056958*
X0005119Y00055725*
X00052247Y00054564*
X00053382Y00053478*
X0005459Y00052475*
X00055865Y00051558*
X00057201Y00050733*
X00058592Y00050002*
X0006003Y00049371*
X00061508Y00048841*
X0006302Y00048416*
X00064557Y00048097*
X00066114Y00047886*
X00067681Y00047785*
X00069251Y00047792*
X00069252Y00047791*
X00067295Y00096752D02*
D01*
X00065451Y00096614*
X0006362Y00096348*
X00061813Y00095954*
X00060038Y00095435*
X00058303Y00094794*
X00056617Y00094033*
X00054988Y00093156*
X00053424Y00092168*
X00051933Y00091073*
X00050523Y00089877*
X00049199Y00088586*
X00047968Y00087205*
X00046836Y00085742*
X0004581Y00084203*
X00044893Y00082597*
X0004409Y0008093*
X00043406Y00079212*
X00042843Y0007745*
X00042405Y00075653*
X00042093Y00073829*
X00041909Y00071989*
X00041854Y0007014*
X00041928Y00068292*
X0004213Y00066453*
X0004246Y00064633*
X00042917Y00062841*
X00043497Y00061085*
X00044199Y00059373*
X00045018Y00057715*
X00045951Y00056117*
X00046993Y00054589*
X00048139Y00053138*
X00049384Y00051769*
X00050721Y00050491*
X00052143Y00049309*
X00053645Y0004823*
X00055219Y00047257*
X00056856Y00046397*
X0005855Y00045653*
X00060291Y00045029*
X00062072Y00044528*
X00063883Y00044153*
X00065716Y00043905*
X00067562Y00043785*
X00069411Y00043794*
X00067136Y00100749D02*
D01*
X00065013Y0010059*
X00062907Y00100283*
X00060827Y0009983*
X00058783Y00099233*
X00056787Y00098495*
X00054846Y00097619*
X00052971Y0009661*
X00051172Y00095473*
X00049456Y00094213*
X00047832Y00092837*
X00046308Y0009135*
X00044891Y00089761*
X00043589Y00088077*
X00042408Y00086306*
X00041352Y00084457*
X00040429Y00082538*
X00039641Y00080561*
X00038994Y00078532*
X00038489Y00076464*
X0003813Y00074366*
X00037918Y00072248*
X00037854Y0007012*
X00037939Y00067993*
X00038173Y00065876*
X00038553Y00063782*
X00039078Y00061719*
X00039746Y00059697*
X00040554Y00057728*
X00041497Y00055819*
X0004257Y00053981*
X0004377Y00052222*
X00045089Y00050551*
X00046521Y00048976*
X0004806Y00047505*
X00049698Y00046144*
X00051426Y00044902*
X00053237Y00043783*
X00055122Y00042793*
X00057071Y00041937*
X00059076Y00041219*
X00061125Y00040642*
X00063209Y0004021*
X00065319Y00039924*
X00067444Y00039787*
X00069571Y00039798*
X00066976Y00104746D02*
D01*
X00064575Y00104566*
X00062192Y00104219*
X00059839Y00103707*
X00057528Y00103032*
X00055269Y00102196*
X00053074Y00101206*
X00050954Y00100065*
X00048918Y00098779*
X00046977Y00097353*
X0004514Y00095796*
X00043416Y00094115*
X00041814Y00092317*
X00040341Y00090412*
X00039005Y00088409*
X00037811Y00086318*
X00036767Y00084148*
X00035876Y00081911*
X00035143Y00079617*
X00034572Y00077278*
X00034166Y00074904*
X00033926Y00072508*
X00033854Y00070101*
X0003395Y00067695*
X00034214Y00065302*
X00034644Y00062932*
X00035238Y00060599*
X00035994Y00058312*
X00036907Y00056084*
X00037974Y00053925*
X00039188Y00051846*
X00040545Y00049856*
X00042037Y00047966*
X00043657Y00046185*
X00045398Y00044521*
X0004725Y00042982*
X00049205Y00041577*
X00051254Y00040311*
X00053385Y00039191*
X0005559Y00038222*
X00057857Y0003741*
X00060175Y00036758*
X00062533Y00036269*
X00064919Y00035946*
X00067322Y0003579*
X0006973Y00035802*
X00069731Y00035801*
X00066816Y00108743D02*
D01*
X00064137Y00108542*
X00061477Y00108155*
X00058852Y00107583*
X00056272Y0010683*
X00053752Y00105898*
X00051302Y00104792*
X00048936Y00103519*
X00046664Y00102083*
X00044499Y00100493*
X00042448Y00098755*
X00040525Y00096879*
X00038737Y00094873*
X00037093Y00092747*
X00035602Y00090512*
X0003427Y00088178*
X00033104Y00085757*
X0003211Y0008326*
X00031292Y000807*
X00030655Y0007809*
X00030202Y00075441*
X00029934Y00072767*
X00029854Y00070081*
X00029961Y00067396*
X00030256Y00064725*
X00030736Y00062081*
X00031399Y00059477*
X00032242Y00056925*
X00033261Y00054439*
X00034452Y00052029*
X00035807Y00049709*
X0003732Y00047489*
X00038986Y00045379*
X00040794Y00043391*
X00042736Y00041534*
X00044803Y00039818*
X00046985Y00038249*
X00049271Y00036836*
X0005165Y00035587*
X00054111Y00034506*
X0005664Y000336*
X00059227Y00032872*
X00061859Y00032326*
X00064522Y00031966*
X00067203Y00031792*
X0006989Y00031805*
X00069891Y00031804*
X00066657Y00112739D02*
D01*
X00063699Y00112517*
X00060764Y0011209*
X00057865Y00111459*
X00055018Y00110627*
X00052235Y00109598*
X00049532Y00108378*
X00046919Y00106972*
X00044412Y00105387*
X0004202Y00103632*
X00039758Y00101713*
X00037634Y00099642*
X00035661Y00097428*
X00033846Y00095081*
X000322Y00092613*
X00030729Y00090037*
X00029442Y00087364*
X00028345Y00084608*
X00027442Y00081782*
X00026739Y000789*
X00026239Y00075976*
X00025944Y00073025*
X00025855Y0007006*
X00025974Y00067095*
X00026298Y00064147*
X00026828Y00061228*
X0002756Y00058353*
X00028491Y00055537*
X00029616Y00052792*
X0003093Y00050132*
X00032426Y00047571*
X00034097Y0004512*
X00035935Y00042791*
X00037932Y00040597*
X00040076Y00038547*
X00042358Y00036652*
X00044766Y0003492*
X0004729Y00033361*
X00049916Y00031981*
X00052632Y00030789*
X00055425Y00029788*
X0005828Y00028985*
X00061185Y00028382*
X00064125Y00027984*
X00067085Y00027792*
X0007005Y00027807*
X00066497Y00116736D02*
D01*
X00063261Y00116494*
X00060049Y00116026*
X00056878Y00115335*
X00053762Y00114425*
X00050718Y00113299*
X0004776Y00111964*
X00044902Y00110426*
X00042158Y00108692*
X00039542Y00106771*
X00037066Y00104672*
X00034743Y00102406*
X00032583Y00099983*
X00030598Y00097416*
X00028796Y00094716*
X00027188Y00091897*
X0002578Y00088972*
X00024579Y00085957*
X00023592Y00082865*
X00022822Y00079712*
X00022275Y00076513*
X00021952Y00073283*
X00021855Y00070039*
X00021984Y00066796*
X0002234Y0006357*
X0002292Y00060376*
X00023721Y00057231*
X00024739Y0005415*
X0002597Y00051146*
X00027408Y00048236*
X00029045Y00045434*
X00030873Y00042752*
X00032884Y00040205*
X00035068Y00037804*
X00037414Y00035561*
X00039911Y00033487*
X00042547Y00031593*
X00045308Y00029886*
X00048181Y00028377*
X00051153Y00027072*
X00054208Y00025977*
X00057332Y00025099*
X00060511Y0002444*
X00063727Y00024004*
X00066966Y00023794*
X0007021Y00023811*
X00066018Y00128727D02*
D01*
X00061947Y00128422*
X00057906Y00127833*
X00053916Y00126964*
X00049997Y00125819*
X00046167Y00124403*
X00042445Y00122724*
X0003885Y00120789*
X00035398Y00118607*
X00032107Y00116191*
X00028992Y0011355*
X00026069Y00110699*
X00023352Y00107651*
X00020855Y00104421*
X00018588Y00101024*
X00016565Y00097478*
X00014793Y00093799*
X00013283Y00090005*
X0001204Y00086116*
X00011073Y00082149*
X00010384Y00078124*
X00009977Y00074061*
X00009855Y0006998*
X00010019Y000659*
X00010466Y00061841*
X00011195Y00057824*
X00012203Y00053867*
X00013484Y0004999*
X00015033Y00046211*
X00016841Y00042551*
X00018901Y00039025*
X00021201Y00035651*
X00023731Y00032446*
X00026478Y00029426*
X0002943Y00026604*
X00032571Y00023995*
X00035886Y00021612*
X0003936Y00019466*
X00042975Y00017567*
X00046713Y00015925*
X00050557Y00014548*
X00054488Y00013442*
X00058486Y00012613*
X00062533Y00012065*
X00066607Y00011801*
X00070689Y0001182*
X00066177Y0012473D02*
D01*
X00062384Y00124446*
X0005862Y00123898*
X00054903Y00123088*
X00051251Y00122021*
X00047683Y00120702*
X00044216Y00119137*
X00040866Y00117335*
X0003765Y00115303*
X00034584Y00113051*
X00031682Y00110591*
X00028959Y00107935*
X00026428Y00105095*
X00024101Y00102086*
X0002199Y00098921*
X00020104Y00095617*
X00018454Y0009219*
X00017046Y00088656*
X00015889Y00085032*
X00014988Y00081336*
X00014346Y00077587*
X00013967Y00073801*
X00013854Y00069999*
X00014006Y00066198*
X00014422Y00062417*
X00015102Y00058674*
X0001604Y00054988*
X00017234Y00051376*
X00018677Y00047856*
X00020362Y00044445*
X0002228Y0004116*
X00024423Y00038017*
X0002678Y00035032*
X0002934Y00032217*
X0003209Y00029589*
X00035016Y00027158*
X00038105Y00024938*
X00041341Y00022938*
X00044709Y00021169*
X00048192Y00019639*
X00051773Y00018356*
X00055435Y00017326*
X0005916Y00016554*
X00062929Y00016043*
X00066725Y00015797*
X00070529Y00015816*
Y00015817*
X00066337Y00120733D02*
D01*
X00062822Y0012047*
X00059334Y00119962*
X0005589Y00119212*
X00052507Y00118223*
X00049201Y00117001*
X00045988Y00115551*
X00042884Y0011388*
X00039904Y00111997*
X00037063Y00109911*
X00034374Y00107632*
X00031851Y00105171*
X00029505Y0010254*
X00027349Y00099751*
X00025393Y00096819*
X00023646Y00093758*
X00022117Y00090581*
X00020813Y00087307*
X0001974Y00083949*
X00018904Y00080525*
X0001831Y0007705*
X00017959Y00073543*
X00017854Y0007002*
X00017994Y00066497*
X0001838Y00062994*
X0001901Y00059526*
X0001988Y0005611*
X00020986Y00052763*
X00022323Y00049502*
X00023884Y00046341*
X00025662Y00043297*
X00027647Y00040385*
X00029832Y00037618*
X00032203Y00035011*
X00034751Y00032575*
X00037463Y00030323*
X00040325Y00028265*
X00043323Y00026412*
X00046444Y00024773*
X00049671Y00023356*
X00052989Y00022167*
X00056383Y00021212*
X00059834Y00020497*
X00063327Y00020024*
X00066844Y00019796*
X00070369Y00019813*
X0007037Y00019814*
X00065379Y00144714D02*
D01*
X00060194Y00144326*
X00055048Y00143576*
X00049967Y00142469*
X00044976Y00141011*
X00040098Y00139208*
X00035359Y00137069*
X00030779Y00134605*
X00026383Y00131827*
X00022192Y00128749*
X00018226Y00125387*
X00014503Y00121756*
X00011043Y00117874*
X00007862Y0011376*
X00004976Y00109435*
X00002399Y00104918*
X00000143Y00100233*
X-0000178Y00095402*
X-00003362Y00090448*
X-00004595Y00085397*
X-00005472Y00080271*
X-00005989Y00075097*
X-00006145Y00069899*
X-00005937Y00064703*
X-00005368Y00059535*
X-00004439Y00054418*
X-00003156Y00049379*
X-00001524Y00044441*
X00000447Y0003963*
X0000275Y00034968*
X00005373Y00030477*
X00008302Y00026181*
X00011524Y00022099*
X00015023Y00018252*
X00018782Y00014659*
X00022782Y00011337*
X00027004Y00008301*
X00031428Y00005568*
X00036031Y0000315*
X00040792Y00001058*
X00045688Y-00000694*
X00050693Y-00002102*
X00055785Y-00003158*
X00060938Y-00003856*
X00066127Y-00004193*
X00071327Y-00004166*
X00071328Y-00004165*
X00065539Y00140717D02*
D01*
X00060632Y00140349*
X00055763Y0013964*
X00050955Y00138593*
X00046231Y00137213*
X00041616Y00135506*
X0003713Y00133482*
X00032798Y0013115*
X00028637Y00128521*
X00024671Y00125609*
X00020917Y00122427*
X00017395Y00118991*
X00014121Y00115318*
X00011111Y00111425*
X00008379Y00107332*
X00005941Y00103057*
X00003806Y00098624*
X00001985Y00094052*
X00000488Y00089365*
X-00000677Y00084584*
X-00001507Y00079734*
X-00001997Y00074837*
X-00002144Y00069919*
X-00001947Y00065002*
X-00001408Y0006011*
X-00000529Y00055269*
X00000684Y000505*
X00002228Y00045828*
X00004094Y00041275*
X00006274Y00036863*
X00008756Y00032614*
X00011528Y00028548*
X00014577Y00024686*
X00017888Y00021045*
X00021445Y00017645*
X0002523Y00014501*
X00029226Y00011628*
X00033412Y00009042*
X00037769Y00006753*
X00042274Y00004775*
X00046906Y00003115*
X00051643Y00001782*
X00056462Y00000784*
X00061338Y00000123*
X00066249Y-00000194*
X00071168Y-00000168*
X00065698Y0013672D02*
D01*
X0006107Y00136373*
X00056477Y00135704*
X00051941Y00134716*
X00047486Y00133415*
X00043132Y00131805*
X00038901Y00129896*
X00034814Y00127696*
X0003089Y00125217*
X00027149Y0012247*
X00023608Y00119468*
X00020285Y00116227*
X00017197Y00112762*
X00014358Y0010909*
X00011782Y00105229*
X00009481Y00101198*
X00007467Y00097016*
X0000575Y00092703*
X00004338Y00088282*
X00003238Y00083772*
X00002455Y00079197*
X00001993Y00074578*
X00001854Y00069939*
X0000204Y00065301*
X00002548Y00060687*
X00003377Y0005612*
X00004522Y00051622*
X00005979Y00047215*
X00007739Y0004292*
X00009795Y00038759*
X00012136Y00034751*
X00014751Y00030916*
X00017627Y00027272*
X0002075Y00023839*
X00024105Y00020631*
X00027676Y00017665*
X00031445Y00014956*
X00035393Y00012516*
X00039503Y00010358*
X00043753Y00008491*
X00048122Y00006926*
X0005259Y00005669*
X00057135Y00004726*
X00061735Y00004104*
X00066367Y00003803*
X00071008Y00003826*
X00069411Y00043794D02*
D01*
X00071117Y00043922*
X00072809Y00044169*
X0007448Y00044533*
X00076121Y00045012*
X00077725Y00045605*
X00079284Y00046309*
X0008079Y00047119*
X00082236Y00048033*
X00083614Y00049045*
X00084919Y00050151*
X00086143Y00051345*
X00087281Y00052621*
X00088327Y00053974*
X00089276Y00055397*
X00090124Y00056882*
X00090865Y00058423*
X00091498Y00060011*
X00092018Y0006164*
X00092424Y00063302*
X00092712Y00064987*
X00092882Y00066689*
X00092934Y00068398*
X00092865Y00070107*
X00092678Y00071807*
X00092373Y0007349*
X00091951Y00075147*
X00091414Y0007677*
X00090765Y00078353*
X00090008Y00079886*
X00089146Y00081363*
X00088182Y00082776*
X00087123Y00084118*
X00085972Y00085383*
X00084736Y00086565*
X0008342Y00087657*
X00082032Y00088656*
X00080577Y00089555*
X00079063Y0009035*
X00077497Y00091038*
X00075887Y00091615*
X00074241Y00092078*
X00072567Y00092425*
X00070872Y00092654*
X00069165Y00092765*
X00067455Y00092756*
X00069252Y00047791D02*
D01*
X00070679Y00047898*
X00072095Y00048105*
X00073493Y00048409*
X00074867Y0004881*
X00076209Y00049306*
X00077513Y00049895*
X00078773Y00050573*
X00079983Y00051337*
X00081136Y00052184*
X00082228Y0005311*
X00083252Y00054109*
X00084204Y00055177*
X0008508Y00056309*
X00085874Y00057499*
X00086583Y00058742*
X00087204Y00060031*
X00087733Y0006136*
X00088168Y00062724*
X00088508Y00064114*
X00088749Y00065524*
X00088892Y00066948*
X00088935Y00068378*
X00088877Y00069808*
X00088721Y0007123*
X00088465Y00072638*
X00088112Y00074024*
X00087663Y00075383*
X0008712Y00076707*
X00086487Y0007799*
X00085765Y00079226*
X00084959Y00080408*
X00084072Y00081531*
X0008311Y0008259*
X00082075Y00083578*
X00080975Y00084493*
X00079813Y00085328*
X00078595Y0008608*
X00077329Y00086746*
X00076019Y00087321*
X00074672Y00087804*
X00073294Y00088191*
X00071893Y00088482*
X00070475Y00088674*
X00069047Y00088767*
X00067616Y00088759*
X00067615*
X00068932Y00055785D02*
D01*
X00069803Y00055851*
X00070666Y00055976*
X00071518Y00056162*
X00072356Y00056407*
X00073174Y00056709*
X00073969Y00057068*
X00074738Y00057482*
X00075475Y00057948*
X00076178Y00058464*
X00076844Y00059028*
X00077468Y00059637*
X00078049Y00060289*
X00078583Y00060979*
X00079067Y00061705*
X00079499Y00062462*
X00079878Y00063249*
X00080201Y00064059*
X00080466Y0006489*
X00080673Y00065738*
X0008082Y00066598*
X00080907Y00067466*
X00080933Y00068338*
X00080931Y00068523*
X0007037Y00019814D02*
D01*
X00073746Y00020068*
X00077096Y00020555*
X00080404Y00021276*
X00083653Y00022225*
X00086828Y00023399*
X00089914Y00024791*
X00092895Y00026396*
X00095757Y00028204*
X00098485Y00030207*
X00101068Y00032396*
X00103491Y0003476*
X00105743Y00037287*
X00107814Y00039965*
X00109693Y00042781*
X00111371Y00045722*
X0011284Y00048772*
X00114092Y00051917*
X00115122Y00055141*
X00115924Y0005843*
X00116495Y00061767*
X00116832Y00065135*
X00116933Y00068519*
X00116798Y00071902*
X00116428Y00075266*
X00115823Y00078597*
X00114988Y00081878*
X00113925Y00085092*
X00112641Y00088224*
X00111142Y00091259*
X00109435Y00094182*
X00107528Y00096979*
X0010543Y00099637*
X00103152Y00102141*
X00100706Y0010448*
X00098101Y00106643*
X00095353Y00108619*
X00092473Y00110399*
X00089476Y00111973*
X00086377Y00113334*
X0008319Y00114476*
X00079931Y00115393*
X00076616Y0011608*
X00073262Y00116534*
X00069884Y00116753*
X00066498Y00116736*
X00066497*
X00071008Y00003826D02*
D01*
X00075498Y00004163*
X00079953Y00004812*
X00084352Y0000577*
X00088673Y00007033*
X00092896Y00008594*
X00097Y00010446*
X00100964Y00012579*
X0010477Y00014984*
X00108399Y00017649*
X00111833Y0002056*
X00115056Y00023703*
X00118051Y00027064*
X00120805Y00030626*
X00123304Y00034371*
X00125535Y00038281*
X00127488Y00042337*
X00129154Y0004652*
X00130524Y00050808*
X00131591Y00055182*
X00132351Y0005962*
X00132799Y00064099*
X00132933Y000686*
X00132753Y00073098*
X0013226Y00077573*
X00131456Y00082003*
X00130345Y00086366*
X00128932Y0009064*
X00127225Y00094806*
X00125231Y00098842*
X0012296Y0010273*
X00120424Y0010645*
X00117635Y00109983*
X00114605Y00113314*
X00111351Y00116425*
X00107888Y00119301*
X00104232Y00121929*
X00100402Y00124296*
X00096417Y00126389*
X00092295Y001282*
X00088056Y00129718*
X00083723Y00130938*
X00079314Y00131851*
X00074853Y00132455*
X0007036Y00132747*
X00065858Y00132724*
X00070689Y0001182D02*
D01*
X00074622Y00012115*
X00078524Y00012684*
X00082378Y00013523*
X00086163Y00014629*
X00089862Y00015997*
X00093457Y00017619*
X00096929Y00019488*
X00100263Y00021594*
X00103442Y00023928*
X0010645Y00026478*
X00109273Y00029232*
X00111897Y00032176*
X00114309Y00035296*
X00116498Y00038577*
X00118453Y00042002*
X00120164Y00045555*
X00121623Y00049219*
X00122822Y00052976*
X00123757Y00056807*
X00124422Y00060694*
X00124815Y00064618*
X00124933Y0006856*
X00124775Y000725*
X00124343Y0007642*
X00123639Y000803*
X00122666Y00084122*
X00121428Y00087866*
X00119932Y00091515*
X00118186Y00095051*
X00116197Y00098457*
X00113975Y00101715*
X00111532Y0010481*
X00108878Y00107728*
X00106027Y00110453*
X00102994Y00112973*
X00099792Y00115274*
X00096437Y00117348*
X00092945Y00119181*
X00089335Y00120767*
X00085622Y00122097*
X00081826Y00123165*
X00077964Y00123966*
X00074056Y00124495*
X00070121Y0012475*
X00066177Y0012473*
X00080931Y00068523D02*
D01*
X00074563Y00071563D02*
X0007789D01*
X00058184Y00148112D02*
X000612Y00151128D01*
Y00174362*
X00064273Y00177435D02*
X00068563D01*
X000612Y00174362D02*
X00064273Y00177435D01*
G54D19*
X00137128Y00137128D03*
Y0D03*
X0D03*
Y00137128D03*
G54D29*
X00053858Y00189187D03*
X00046406Y00189128D03*
X0006131Y00189247D03*
X00061191Y00204151D03*
X00061251Y00196699D03*
X00046287Y00204032D03*
X00046346Y0019658D03*
X00053798Y00196639D03*
X00053739Y00204092D03*
X00068762Y00189307D03*
X00068702Y00196759D03*
X00076155Y00196818D03*
X00076214Y00189366D03*
X00076095Y0020427D03*
X00068643Y00204211D03*
X00083666Y00189426D03*
X00083607Y00196878D03*
X00091059Y00196938D03*
X00091118Y00189486D03*
X00090999Y0020439D03*
X00083547Y0020433D03*
X00113622Y00162586D03*
X00106172D03*
X00106234Y00155194D03*
X00106295Y00147801D03*
X00113745D03*
X00121195D03*
X00113684Y00155194D03*
X00121072Y00162586D03*
X00121134Y00155194D03*
X00128584D03*
X00128522Y00162586D03*
X00135972D03*
X00015932Y00147801D03*
X00000908Y00162586D03*
X0000842Y00155194D03*
X00023381Y00147801D03*
X00030832D03*
X0002332Y00155194D03*
X0001587D03*
X00015808Y00162586D03*
X00008358D03*
X00023258D03*
X00030708D03*
X0003077Y00155194D03*
X-00010672Y00015932D03*
X-00025457Y00000908D03*
X-00018065Y0000842D03*
X-00010672Y00023381D03*
Y00030832D03*
X-00018065Y0002332D03*
Y0001587D03*
X-00025457Y00015808D03*
Y00008358D03*
Y00023258D03*
Y00030708D03*
X-00018065Y0003077D03*
Y0003822D03*
X-00025457Y00038158D03*
Y00045608D03*
X-00018065Y0004567D03*
Y0005312D03*
X-00025457Y00053058D03*
Y00060508D03*
X-00018065Y0006057D03*
Y0006802D03*
X-00025457Y00067958D03*
Y00075408D03*
X-00018065Y0007547D03*
X-00025457Y00135972D03*
Y00128522D03*
X-00018065Y00128584D03*
Y00121134D03*
X-00025457Y00121072D03*
X-00018065Y00113684D03*
X-00010672Y00121195D03*
Y00113745D03*
Y00106295D03*
X-00018065Y00106234D03*
X-00025457Y00106172D03*
Y00098722D03*
X-00018065Y00098784D03*
Y00091334D03*
X-00025457Y00091272D03*
Y00083822D03*
X-00018065Y00083884D03*
X-00025457Y00113622D03*
X00147801Y00121195D03*
X00162586Y00136219D03*
X00155194Y00128707D03*
X00147801Y00113745D03*
Y00106295D03*
X00155194Y00113807D03*
Y00121257D03*
X00162586Y00121319D03*
Y00128769D03*
Y00113869D03*
Y00106419D03*
X00155194Y00106357D03*
Y00098907D03*
X00162586Y00098969D03*
Y00091519D03*
X00155194Y00091457D03*
Y00084007D03*
X00162586Y00084069D03*
Y00076619D03*
X00155194Y00076557D03*
Y00069107D03*
X00162586Y00069169D03*
Y00061719D03*
X00155194Y00061657D03*
X00162586Y00001155D03*
Y00008605D03*
X00155194Y00008543D03*
Y00015993D03*
X00162586Y00016055D03*
X00155194Y00023443D03*
X00147801Y00015932D03*
Y00023381D03*
Y00030832D03*
X00155194Y00030893D03*
X00162586Y00030955D03*
Y00038405D03*
X00155194Y00038343D03*
Y00045793D03*
X00162586Y00045855D03*
Y00053305D03*
X00155194Y00053243D03*
X00162586Y00023505D03*
X00023505Y-00025457D03*
X00030955D03*
X00030893Y-00018065D03*
X00030832Y-00010672D03*
X00023381D03*
X00015932D03*
X00023443Y-00018065D03*
X00016055Y-00025457D03*
X00015993Y-00018065D03*
X00008543D03*
X00008605Y-00025457D03*
X00001155D03*
X00106357Y-00018065D03*
X00106419Y-00025457D03*
X00113869D03*
X00128769D03*
X00121319D03*
X00121257Y-00018065D03*
X00113807D03*
X00106295Y-00010672D03*
X00113745D03*
X00128707Y-00018065D03*
X00136219Y-00025457D03*
X00121195Y-00010672D03*
X00068563Y00177435D03*
X00074563Y00071563D03*
M02*