%FSTAX44Y44*%
%MOMM*%
%SFA1B1*%

%IPPOS*%
%ADD11C,1.799996*%
%ADD12C,2.199996*%
%ADD13R,3.752892X2.021096*%
%ADD14R,3.564693X2.144396*%
%ADD15R,1.716897X13.842972*%
%ADD16R,3.811692X1.776896*%
%ADD17R,4.015892X2.021096*%
%ADD18R,1.314597X14.216172*%
%ADD19C,2.199996*%
%ADD31R,1.019998X3.169994*%
%LNpcb1-1*%
%LPD*%
G54D11*
X00029051Y00149963D02*
D01*
X00023445Y00147008*
X00018058Y00143669*
X00012918Y00139962*
X00008048Y00135905*
X00003473Y00131519*
X-00000783Y00126824*
X-00004703Y00121844*
X-00008265Y00116602*
X-00011454Y00111125*
X-00014252Y00105438*
X-00016647Y00099571*
X-00018627Y0009355*
X-00020182Y00087406*
X-00021305Y00081169*
X-0002199Y00074868*
X-00022234Y00068535*
X-00022035Y000622*
X-00021395Y00055895*
X-00020317Y0004965*
X-00018806Y00043495*
X-00016869Y0003746*
X-00014516Y00031576*
X-00014017Y00030466*
X00158743Y00078804D02*
D01*
X00157785Y00085069*
X00156391Y00091252*
X0015457Y00097322*
X0015233Y00103251*
X00149682Y00109009*
X00146638Y00114568*
X00143214Y00119901*
X00139427Y00124983*
X00135294Y00129788*
X00130836Y00134293*
X00126075Y00138476*
X00121034Y00142316*
X00115736Y00145796*
X00110209Y00148898*
X00107945Y00150027*
X00110514Y-00011611D02*
D01*
X00116029Y-00008489*
X00121313Y-00004989*
X0012634Y-0000113*
X00131086Y0000307*
X00135527Y00007592*
X00139641Y00012412*
X00143409Y00017508*
X00146813Y00022854*
X00149836Y00028425*
X00152462Y00034193*
X0015468Y0004013*
X00156478Y00046207*
X00157848Y00052395*
X00158783Y00058664*
X00159278Y00064982*
X00159332Y0007132*
X00158943Y00077645*
X00158114Y00083929*
X00156848Y00090139*
X00155153Y00096245*
X00153035Y00102219*
X00151146Y00106661*
X-00021615Y00058322D02*
D01*
X-00020657Y00052058*
X-00019263Y00045875*
X-00017442Y00039804*
X-00015202Y00033876*
X-00012554Y00028118*
X-0000951Y00022559*
X-00006086Y00017225*
X-00002299Y00012144*
X00001833Y00007339*
X00006291Y00002834*
X00011052Y-00001348*
X00016093Y-00005188*
X0002139Y-00008668*
X00026613Y-00011611*
G54D12*
X00018192Y00147097D02*
D01*
X00017453Y00148342*
X00016628Y00149532*
X00015722Y00150662*
X0001474Y00151726*
X00013686Y00152719*
X00012565Y00153635*
X00011383Y00154472*
X00010145Y00155223*
X00008858Y00155887*
X00007528Y00156459*
X00006161Y00156937*
X00004765Y00157319*
X00003344Y00157602*
X00001908Y00157786*
X00000463Y00157868*
X-00000984Y0015785*
X-00002427Y00157731*
X-00003859Y00157512*
X-00005271Y00157193*
X-00006658Y00156776*
X-00008012Y00156264*
X-00009327Y00155658*
X-00010597Y00154962*
X-00011815Y0015418*
X-00012976Y00153314*
X-00014074Y00152369*
X-00015102Y0015135*
X-00016058Y00150262*
X-00016935Y0014911*
X-00017729Y00147899*
X-00018437Y00146636*
X-00019056Y00145327*
X-00019581Y00143978*
X-00020011Y00142595*
X-00020344Y00141186*
X-00020578Y00139757*
X-00020711Y00138315*
X-00020743Y00136867*
X-00020674Y00135421*
X-00020505Y00133983*
X-00020235Y0013256*
X-00019867Y0013116*
X-00019403Y00129788*
X-00018844Y00128453*
X-00018192Y00127159*
X-00017453Y00125915*
X-00016628Y00124724*
X-00015722Y00123595*
X-0001474Y00122531*
X-00013686Y00121538*
X-00012565Y00120622*
X-00011383Y00119785*
X-00010699Y00119355*
X00147957Y00119434D02*
D01*
X00149165Y00120233*
X00150314Y00121114*
X001514Y00122072*
X00152415Y00123105*
X00153356Y00124205*
X00154218Y00125369*
X00154997Y00126589*
X00155688Y00127862*
X0015629Y00129179*
X00156797Y00130535*
X00157209Y00131923*
X00157524Y00133336*
X00157738Y00134768*
X00157853Y00136212*
X00157866Y0013766*
X00157779Y00139105*
X0015759Y0014054*
X00157303Y0014196*
X00156917Y00143355*
X00156434Y0014472*
X00155857Y00146048*
X00155189Y00147333*
X00154434Y00148568*
X00153594Y00149747*
X00152673Y00150865*
X00151677Y00151916*
X0015061Y00152895*
X00149477Y00153797*
X00148284Y00154618*
X00147037Y00155354*
X00145742Y00156*
X00144404Y00156555*
X00143031Y00157015*
X0014163Y00157379*
X00140206Y00157644*
X00138768Y00157808*
X00137321Y00157872*
X00135874Y00157835*
X00134432Y00157697*
X00133004Y00157459*
X00131596Y00157122*
X00130215Y00156687*
X00128867Y00156157*
X0012756Y00155535*
X00126299Y00154822*
X00125091Y00154024*
X00123942Y00153143*
X00122857Y00152184*
X00121842Y00151152*
X00120901Y00150052*
X00120039Y00148888*
X00119296Y00147729*
X00118935Y-00009968D02*
D01*
X00119675Y-00011213*
X001205Y-00012403*
X00121406Y-00013533*
X00122388Y-00014597*
X00123442Y-0001559*
X00124563Y-00016506*
X00125745Y-00017343*
X00126982Y-00018094*
X0012827Y-00018758*
X001296Y-0001933*
X00130966Y-00019808*
X00132363Y-0002019*
X00133783Y-00020473*
X0013522Y-00020657*
X00136665Y-00020739*
X00138113Y-00020721*
X00139556Y-00020602*
X00140988Y-00020382*
X001424Y-00020064*
X00143787Y-00019647*
X00145141Y-00019135*
X00146456Y-00018529*
X00147726Y-00017833*
X00148944Y-00017051*
X00150105Y-00016185*
X00151203Y-0001524*
X00152231Y-00014221*
X00153187Y-00013133*
X00154064Y-00011981*
X00154858Y-0001077*
X00155566Y-00009507*
X00156185Y-00008198*
X0015671Y-00006849*
X0015714Y-00005466*
X00157473Y-00004057*
X00157707Y-00002628*
X0015784Y-00001186*
X00157872Y0000026*
X00157803Y00001707*
X00157634Y00003145*
X00157364Y00004567*
X00156996Y00005968*
X00156532Y00007339*
X00155973Y00008675*
X00155321Y00009968*
X00154582Y00011213*
X00153757Y00012403*
X00152851Y00013533*
X00151869Y00014597*
X00150815Y0001559*
X00149694Y00016506*
X00148512Y00017343*
X00147828Y00017772*
X-00010828Y00017693D02*
D01*
X-00012036Y00016895*
X-00013185Y00016014*
X-0001427Y00015055*
X-00015286Y00014023*
X-00016227Y00012923*
X-00017089Y00011759*
X-00017868Y00010538*
X-00018559Y00009266*
X-0001916Y00007949*
X-00019668Y00006593*
X-0002008Y00005205*
X-00020395Y00003791*
X-00020609Y00002359*
X-00020724Y00000916*
X-00020737Y-00000531*
X-0002065Y-00001976*
X-00020461Y-00003411*
X-00020174Y-00004831*
X-00019788Y-00006226*
X-00019305Y-00007591*
X-00018728Y-00008919*
X-0001806Y-00010204*
X-00017305Y-00011439*
X-00016465Y-00012618*
X-00015544Y-00013736*
X-00014548Y-00014787*
X-00013481Y-00015766*
X-00012348Y-00016668*
X-00011155Y-00017489*
X-00009908Y-00018225*
X-00008613Y-00018871*
X-00007275Y-00019426*
X-00005902Y-00019886*
X-00004501Y-0002025*
X-00003077Y-00020515*
X-00001639Y-00020679*
X-00000192Y-00020743*
X00001254Y-00020706*
X00002695Y-00020568*
X00004124Y-0002033*
X00005532Y-00019993*
X00006913Y-00019558*
X0000826Y-00019028*
X00009568Y-00018406*
X00010828Y-00017693*
X00012036Y-00016895*
X00013185Y-00016014*
X0001427Y-00015055*
X00015286Y-00014023*
X00016227Y-00012923*
X00017089Y-00011759*
X00017831Y-00010601*
X00018192Y00147097D02*
D01*
X00017453Y00148342*
X00016628Y00149532*
X00015722Y00150662*
X0001474Y00151726*
X00013686Y00152719*
X00012565Y00153635*
X00011383Y00154472*
X00010145Y00155223*
X00008858Y00155887*
X00007528Y00156459*
X00006161Y00156937*
X00004765Y00157319*
X00003344Y00157602*
X00001908Y00157786*
X00000463Y00157868*
X-00000984Y0015785*
X-00002427Y00157731*
X-00003859Y00157512*
X-00005271Y00157193*
X-00006658Y00156776*
X-00008012Y00156264*
X-00009327Y00155658*
X-00010597Y00154962*
X-00011815Y0015418*
X-00012976Y00153314*
X-00014074Y00152369*
X-00015102Y0015135*
X-00016058Y00150262*
X-00016935Y0014911*
X-00017729Y00147899*
X-00018437Y00146636*
X-00019056Y00145327*
X-00019581Y00143978*
X-00020011Y00142595*
X-00020344Y00141186*
X-00020578Y00139757*
X-00020711Y00138315*
X-00020743Y00136867*
X-00020674Y00135421*
X-00020505Y00133983*
X-00020235Y0013256*
X-00019867Y0013116*
X-00019403Y00129788*
X-00018844Y00128453*
X-00018192Y00127159*
X-00017453Y00125915*
X-00016628Y00124724*
X-00015722Y00123595*
X-0001474Y00122531*
X-00013686Y00121538*
X-00012565Y00120622*
X-00011383Y00119785*
X-00010699Y00119355*
X-00013648Y00015622D02*
D01*
X-00014705Y00014632*
X-0001569Y00013571*
X-00016598Y00012443*
X-00017426Y00011255*
X-00018169Y00010012*
X-00018823Y0000872*
X-00019385Y00007386*
X-00019853Y00006015*
X-00020225Y00004616*
X-00020497Y00003194*
X-0002067Y00001756*
X-00020742Y0000031*
X-00020714Y-00001136*
X-00020584Y-00002579*
X-00020354Y-00004008*
X-00020025Y-00005418*
X-00019598Y-00006802*
X-00019075Y-00008153*
X-0001846Y-00009463*
X-00017755Y-00010728*
X-00016963Y-00011941*
X-00016089Y-00013095*
X-00015137Y-00014185*
X-0001411Y-00015207*
X-00013015Y-00016154*
X-00011856Y-00017023*
X-0001064Y-00017808*
X-00009372Y-00018507*
X-00008058Y-00019116*
X-00006705Y-00019631*
X-00005319Y-00020051*
X-00003907Y-00020373*
X-00002477Y-00020596*
X-00001034Y-00020719*
X00000413Y-00020741*
X00001859Y-00020661*
X00003295Y-00020481*
X00004716Y-00020201*
X00006114Y-00019823*
X00007482Y-00019348*
X00008813Y-00018779*
X00010102Y-00018119*
X00011341Y-0001737*
X00012525Y-00016536*
X00013648Y-00015622*
X00014705Y-00014632*
X0001569Y-00013571*
X00016598Y-00012443*
X00017426Y-00011255*
X00017838Y-00010588*
X00119337Y-00010669D02*
D01*
X00120125Y-00011884*
X00120995Y-00013041*
X00121945Y-00014135*
X00122968Y-0001516*
X0012406Y-0001611*
X00125215Y-00016983*
X00126429Y-00017772*
X00127695Y-00018475*
X00129007Y-00019088*
X00130358Y-00019608*
X00131742Y-00020033*
X00133153Y-0002036*
X00134583Y-00020587*
X00136025Y-00020714*
X00137473Y-00020741*
X00138919Y-00020666*
X00140356Y-00020491*
X00141778Y-00020216*
X00143177Y-00019842*
X00144546Y-00019372*
X00145879Y-00018807*
X0014717Y-00018151*
X00148412Y-00017406*
X00149598Y-00016577*
X00150724Y-00015666*
X00151784Y-0001468*
X00152773Y-00013622*
X00153685Y-00012497*
X00154516Y-00011311*
X00155263Y-00010071*
X00155921Y-00008781*
X00156488Y-00007449*
X00156961Y-0000608*
X00157336Y-00004682*
X00157614Y-00003261*
X00157791Y-00001824*
X00157868Y-00000378*
X00157844Y00001069*
X00157719Y00002511*
X00157494Y00003941*
X00157169Y00005353*
X00156747Y00006737*
X00156229Y0000809*
X00155618Y00009402*
X00154917Y00010669*
X0015413Y00011884*
X00153259Y00013041*
X0015231Y00014135*
X00151287Y0001516*
X00150253Y00016064*
X00147957Y00119434D02*
D01*
X00149165Y00120233*
X00150314Y00121114*
X001514Y00122072*
X00152415Y00123105*
X00153356Y00124205*
X00154218Y00125369*
X00154997Y00126589*
X00155688Y00127862*
X0015629Y00129179*
X00156797Y00130535*
X00157209Y00131923*
X00157524Y00133336*
X00157738Y00134768*
X00157853Y00136212*
X00157866Y0013766*
X00157779Y00139105*
X0015759Y0014054*
X00157303Y0014196*
X00156917Y00143355*
X00156434Y0014472*
X00155857Y00146048*
X00155189Y00147333*
X00154434Y00148568*
X00153594Y00149747*
X00152673Y00150865*
X00151677Y00151916*
X0015061Y00152895*
X00149477Y00153797*
X00148284Y00154618*
X00147037Y00155354*
X00145742Y00156*
X00144404Y00156555*
X00143031Y00157015*
X0014163Y00157379*
X00140206Y00157644*
X00138768Y00157808*
X00137321Y00157872*
X00135874Y00157835*
X00134432Y00157697*
X00133004Y00157459*
X00131596Y00157122*
X00130215Y00156687*
X00128867Y00156157*
X0012756Y00155535*
X00126299Y00154822*
X00125091Y00154024*
X00123942Y00153143*
X00122857Y00152184*
X00121842Y00151152*
X00120901Y00150052*
X00120039Y00148888*
X00119296Y00147729*
G54D13*
X00016833Y-00021613D03*
G54D14*
X00119304Y-00021395D03*
G54D15*
X-00023115Y00070424D03*
D03*
G54D16*
X00019057Y00159953D03*
D03*
G54D17*
X00118978Y00158742D03*
D03*
G54D18*
X00162244Y00068558D03*
D03*
G54D19*
X00137128Y00137128D03*
Y0D03*
X0D03*
Y00137128D03*
G54D31*
X00081259Y00164746D03*
X00055859D03*
M02*