%FSTAX44Y44*%
%MOMM*%
%SFA1B1*%

%IPPOS*%
%ADD10C,0.999998*%
%ADD11C,0.200000*%
%ADD12C,0.220000*%
%LNpcb1-1*%
%LPD*%
G36*
X00072633Y00074844D02*
X0007295D01*
X00073194Y0007482*
X00073414Y00074796*
X00073585*
X00073682Y00074771*
X00073731*
X00073902Y00074722*
X00074Y00074698*
X00074073Y00074649*
X00074097*
X0007417Y00074576*
X00074195Y00074478*
X00074219Y00074405*
Y00074381*
Y00071891*
Y00071793*
X0007417Y0007172*
X00074097Y00071549*
X00074Y00071427*
X00073975Y00071403*
X00073951Y00071378*
X0007356Y00070963*
X00073218Y00070573*
X00072877Y00070231*
X00072559Y00069889*
X00072291Y00069596*
X00072022Y00069303*
X00071778Y00069059*
X00071583Y0006884*
X00071388Y0006862*
X00071217Y00068449*
X00071095Y00068303*
X00070973Y00068205*
X000709Y00068107*
X00070826Y00068034*
X00070802Y0006801*
X00070777Y00067985*
X00071168Y0006757*
X0007151Y00067204*
X00071851Y00066862*
X00072169Y00066521*
X00072437Y00066228*
X00072706Y00065959*
X0007295Y00065715*
X00073145Y00065496*
X0007334Y000653*
X00073511Y00065129*
X00073633Y00064983*
X00073755Y00064861*
X00073829Y00064788*
X00073902Y00064714*
X00073951Y00064666*
X00074048Y00064592*
X00074097Y00064519*
X00074195Y00064348*
X00074219Y00064251*
Y00064202*
Y00061712*
X00074195Y0006159*
X00074146Y00061492*
X00074048Y00061444*
X00073975Y00061395*
X0007378Y00061346*
X00073194*
X00072877Y0006137*
X0007234*
X0007212Y00061395*
X00071925*
X0007151Y00061419*
X00070851*
X00070607Y00061444*
X0007007*
X00069972Y00061492*
X00069801Y00061566*
X00069703Y00061663*
X00069655Y00061688*
Y00061712*
X00069362Y00062152*
X0006902Y00062591*
X00068678Y0006303*
X00068361Y00063445*
X00068068Y00063811*
X00067946Y00063958*
X00067848Y0006408*
X00067751Y00064202*
X00067677Y00064275*
X00067653Y00064324*
X00067629Y00064348*
X0006714Y00063787*
X00066701Y00063274*
X00066335Y0006281*
X00066042Y00062444*
X00065798Y00062127*
X00065627Y00061907*
X00065505Y00061761*
X00065481Y00061712*
X00065383Y00061615*
X00065285Y00061541*
X00065114Y00061444*
X00064993Y00061419*
X00064163*
X00063894Y00061395*
X00063259*
X00062869Y0006137*
X00062527*
X00062234Y00061346*
X00061575*
X00061404Y0006137*
X00061282Y00061395*
X00061209Y00061468*
X0006116Y00061517*
X00061087Y00061663*
Y00061688*
Y00061712*
Y00064202*
X00061111Y00064275*
X0006116Y00064348*
X00061233Y0006447*
X00061331Y00064592*
X00061575Y00064885*
X00061868Y00065203*
X00062161Y00065496*
X00062405Y00065764*
X00062503Y00065862*
X00062576Y00065935*
X00062625Y00065984*
X00062649Y00066008*
X00063382Y00066692*
X00063699Y00067009*
X00064016Y00067302*
X0006426Y00067546*
X00064456Y00067717*
X00064577Y00067839*
X00064626Y00067888*
X00064236Y00068303*
X00063845Y00068693*
X00063504Y00069059*
X00063186Y00069401*
X00062893Y00069718*
X00062625Y00069987*
X00062405Y00070255*
X00062185Y00070475*
X0006199Y0007067*
X00061819Y00070841*
X00061697Y00070988*
X00061575Y0007111*
X00061502Y00071207*
X00061429Y00071281*
X00061404Y00071305*
X0006138Y00071329*
X00061282Y00071451*
X00061233Y00071549*
X00061136Y0007172*
X00061111Y00071818*
Y00071866*
Y00072037*
Y00072257*
Y00072672*
X00061087Y00072843*
Y00072989*
Y00073087*
Y00073136*
Y00073429*
Y00073673*
Y00073892*
Y00074063*
Y0007421*
Y00074307*
Y00074356*
Y00074381*
X00061111Y00074454*
X00061185Y00074551*
X00061282Y000746*
X00061429Y00074674*
X000616Y00074698*
X00061795Y00074747*
X0006221Y00074796*
X000626Y00074844*
X00062796*
X00062967Y00074869*
X00063674*
X00063992Y00074844*
X0006426*
X0006448Y0007482*
X00064626Y00074796*
X00064748*
X00064822Y00074771*
X00064846*
X0006509Y00074698*
X00065261Y00074576*
X00065359Y00074478*
X00065383Y00074429*
X00065725Y0007399*
X00066042Y000736*
X00066311Y00073258*
X00066555Y0007294*
X00066774Y00072672*
X0006697Y00072428*
X00067116Y00072233*
X00067263Y00072062*
X00067385Y00071915*
X00067458Y00071818*
X00067604Y00071647*
X00067653Y00071574*
X00067677Y00071549*
X00068166Y00072233*
X00068605Y00072818*
X00068947Y00073331*
X0006924Y00073746*
X00069484Y00074063*
X00069655Y00074307*
X00069752Y00074454*
X00069777Y00074478*
Y00074503*
X00070021Y00074625*
X00070192Y00074722*
X00070289Y00074771*
X00070314*
X00070582Y00074796*
X00070851Y0007482*
X00071144Y00074844*
X00071412*
X00071632Y00074869*
X00072315*
X00072633Y00074844*
G37*
G36*
X00054081D02*
X00054692Y00074796D01*
X00055278Y00074698*
X0005579Y00074576*
X00056278Y00074429*
X00056718Y00074283*
X00057108Y00074112*
X0005745Y00073941*
X00057767Y0007377*
X00058036Y000736*
X00058256Y00073453*
X00058451Y00073307*
X00058597Y00073185*
X00058695Y00073087*
X00058744Y00073038*
X00058768Y00073014*
X00058915Y00072892*
X00058988Y00072771*
X00059012Y00072721*
Y00072696*
X00058988Y00072525*
X00058915Y00072306*
X00058793Y00072037*
X0005867Y00071744*
X00058524Y00071476*
X00058426Y00071256*
X00058329Y0007111*
X00058304Y00071085*
Y00071061*
X00058182Y00070817*
X0005806Y00070622*
X00057938Y00070426*
X00057841Y0007028*
X0005767Y00070036*
X00057548Y0006984*
X00057426Y00069718*
X00057352Y0006967*
X00057328Y00069621*
X00057304*
X00056913Y00069865*
X00056571Y00070085*
X00056425Y00070182*
X00056327Y00070255*
X00056254Y0007028*
X0005623Y00070304*
X00055766Y00070524*
X00055302Y00070695*
X00054864Y00070817*
X00054496Y0007089*
X00054155Y00070939*
X00053911Y00070988*
X00053691*
X00053325Y00070963*
X00052959Y00070914*
X00052666Y00070866*
X00052373Y00070768*
X00052153Y00070695*
X00051982Y00070646*
X00051885Y00070597*
X00051836Y00070573*
X00051494Y00070377*
X00051226Y00070158*
X0005103Y00069938*
X00050884Y00069694*
X00050762Y00069499*
X00050713Y00069328*
X00050664Y0006923*
Y00069181*
X00051274Y00069133*
X00051836Y00069084*
X00052348Y00069035*
X00052837Y00069011*
X00053276Y00068962*
X00053691Y00068913*
X00054057Y00068888*
X00054374Y00068864*
X00054667Y0006884*
X00054911Y00068815*
X00055131Y00068791*
X00055302Y00068766*
X00055448*
X00055546Y00068742*
X00055619*
X00056107Y00068693*
X00056522Y00068644*
X00056913Y0006862*
X0005723Y00068571*
X00057499Y00068547*
X00057743Y00068522*
X00057938*
X00058109Y00068498*
X00058231Y00068473*
X00058402*
X00058451Y00068449*
X00058524*
X00058695Y000684*
X00058841Y00068327*
X00059061Y00068107*
X00059232Y00067839*
X0005933Y00067546*
X00059403Y00067277*
X00059427Y00067033*
X00059452Y00066936*
Y00066862*
Y00066838*
Y00066814*
X00059427Y00066301*
X00059378Y00065837*
X00059281Y00065373*
X00059159Y00064934*
X00059012Y00064519*
X00058841Y00064129*
X0005867Y00063762*
X000585Y00063421*
X00058329Y00063128*
X00058158Y00062884*
X00057987Y0006264*
X00057841Y00062444*
X00057718Y00062298*
X00057621Y000622*
X00057572Y00062127*
X00057548Y00062103*
X00057181Y00061761*
X00056815Y00061444*
X00056425Y00061175*
X00056034Y00060955*
X00055644Y0006076*
X00055278Y00060614*
X00054911Y00060467*
X00054545Y0006037*
X00054229Y00060296*
X00053911Y00060223*
X00053642Y00060174*
X00053422Y0006015*
X00053227*
X00053081Y00060126*
X00052959*
X00052373Y0006015*
X00051811Y00060223*
X00051274Y00060321*
X00050786Y00060467*
X00050322Y00060614*
X00049907Y00060809*
X00049517Y00061004*
X00049175Y00061199*
X00048858Y00061395*
X00048565Y0006159*
X00048345Y00061785*
X0004815Y00061932*
X00047979Y00062078*
X00047881Y00062176*
X00047808Y00062249*
X00047784Y00062273*
X00047442Y00062664*
X00047174Y00063103*
X00046905Y00063543*
X0004671Y00063982*
X00046515Y00064422*
X00046368Y00064861*
X00046246Y000653*
X00046148Y00065715*
X00046051Y00066106*
X00046002Y00066447*
X00045953Y00066789*
X00045929Y00067058*
Y00067277*
X00045904Y00067448*
Y00067546*
Y00067595*
X00045929Y00068205*
X00046002Y00068766*
X00046101Y00069328*
X00046246Y0006984*
X00046392Y00070304*
X00046588Y00070744*
X00046759Y00071159*
X00046978Y00071501*
X00047174Y00071842*
X00047369Y00072136*
X0004754Y00072379*
X00047686Y00072574*
X00047833Y00072721*
X0004793Y00072843*
X00048004Y00072916*
X00048028Y0007294*
X00048418Y00073282*
X00048834Y00073575*
X00049273Y00073844*
X00049737Y00074063*
X00050176Y00074234*
X00050615Y00074405*
X00051055Y00074527*
X00051494Y00074625*
X00051885Y00074698*
X00052251Y00074771*
X00052568Y0007482*
X00052861Y00074844*
X00053105*
X00053276Y00074869*
X00053422*
X00054081Y00074844*
G37*
G36*
X00033236D02*
X00033797D01*
X00033968Y0007482*
X00034066*
X00034188Y00074796*
X00034285Y00074771*
X00034334Y00074698*
X00034383Y00074649*
X00034432Y00074551*
Y00074503*
Y00074088*
Y00073648*
X00034408Y00073185*
Y00072721*
X00034383Y0007233*
Y00072136*
Y00071988*
X00034359Y00071866*
Y00071769*
Y0007172*
Y00071696*
X00034334Y00071329*
X0003431Y00071012*
Y00070695*
X00034285Y00070426*
X00034261Y00070158*
Y00069938*
X00034237Y00069548*
Y00069255*
X00034212Y00069059*
Y00068937*
Y00068888*
X00034188Y00068229*
Y00067644*
X00034163Y00067131*
X00034139Y00066716*
Y00066374*
X00034115Y0006613*
Y00065984*
Y00065935*
X00034481Y00065959*
X00034871Y00065984*
X00035262Y00066008*
X00035652*
X00035994Y00066033*
X00036531*
X00036653Y00066008*
X00036751Y00065984*
X000368Y00065935*
X00036849Y00065862*
X00036897Y0006574*
Y00065715*
Y00065691*
Y00065447*
Y00065154*
Y00064836*
Y00064495*
Y00064178*
Y00063933*
Y00063836*
Y00063762*
Y00063714*
Y00063689*
X00036873Y00063225*
Y00062835*
Y00062493*
X00036849Y000622*
Y00061981*
Y00061834*
Y00061736*
Y00061712*
X00036824Y00061615*
X00036775Y00061517*
X00036653Y00061444*
X00036507Y00061395*
X00035677*
X00035481Y00061419*
X00034896*
X00034652Y00061444*
X00033968*
X00033919Y00061126*
X00033895Y00060858*
X00033871Y00060736*
Y00060638*
Y00060589*
Y00060565*
X00033895Y00060052*
X00033944Y00059637*
X00034017Y00059296*
X00034115Y00059027*
X00034212Y00058832*
X00034285Y00058685*
X00034334Y00058612*
X00034359Y00058588*
X00034505Y0005849*
X000347Y00058392*
X0003492Y00058319*
X00035164Y0005827*
X00035408Y00058222*
X00035604Y00058197*
X00035726Y00058173*
X00035774*
X00036116Y00058124*
X0003636Y00058051*
X00036531Y00057978*
X00036653Y00057904*
X00036726Y00057831*
X00036751Y00057782*
X00036775Y00057758*
Y00057733*
X00036751Y00057489*
X00036726Y00057196*
X00036703Y00057099*
X00036678Y00057001*
X00036653Y00056928*
Y00056904*
X00036604Y00056684*
X00036555Y00056513*
X00036531Y00056391*
X00036507Y00056293*
X00036482Y0005622*
Y00056171*
Y00056147*
X00036409Y00055683*
X00036336Y00055268*
X00036263Y00054951*
X00036214Y00054682*
X00036189Y00054487*
X00036165Y00054341*
X00036141Y00054267*
Y00054243*
X00036068Y00054145*
X00035945Y00054096*
X00035848Y00054072*
X00035799*
X00035042Y00054096*
X00034334Y0005417*
X00033675Y00054267*
X00033089Y00054414*
X00032528Y00054585*
X0003204Y00054755*
X000316Y00054975*
X0003121Y0005517*
X00030844Y00055366*
X00030551Y00055561*
X00030307Y00055756*
X00030112Y00055927*
X00029941Y00056074*
X00029843Y00056171*
X0002977Y00056244*
X00029745Y00056269*
X00029575Y00056489*
X00029428Y00056733*
X00029184Y00057294*
X00029037Y0005788*
X00028915Y00058466*
X00028842Y00058978*
X00028818Y00059222*
Y00059418*
X00028793Y00059589*
Y0005971*
Y00059784*
Y00059808*
Y00060077*
X00028818Y00060345*
Y00060638*
X00028842Y00060931*
Y00061175*
X00028867Y0006137*
Y00061517*
Y00061541*
Y00061566*
X000285Y0006159*
X00028183Y00061615*
X00028061*
X00027963Y00061639*
X0002789*
X00027719Y00061688*
X00027573Y00061785*
X00027475Y00061883*
X00027426Y00061981*
X00027378Y00062103*
X00027353Y00062176*
Y00062249*
Y00062273*
Y00062688*
Y00063103*
Y0006347*
X00027378Y00063811*
Y00064153*
X00027402Y00064446*
Y00064714*
X00027426Y00064934*
Y00065154*
Y00065349*
X00027451Y00065496*
Y00065618*
X00027475Y0006574*
Y00065813*
Y00065837*
Y00065862*
X000275Y00065935*
X00027549Y00065984*
X00027695Y00066033*
X00027841Y00066057*
X00028207*
X00028354Y00066033*
X00028525*
X0002872Y00066057*
X00028842Y00066106*
X0002894Y00066155*
X00029013Y00066228*
X00029062Y00066325*
X00029086Y00066374*
Y00066423*
Y00066447*
Y00074234*
X00029111Y00074381*
X00029159Y00074527*
X00029233Y00074625*
X0002933Y00074698*
X00029477Y00074771*
X00029526Y00074796*
X00029648*
X0002977Y0007482*
X00030087Y00074844*
X00030429*
X00030771Y00074869*
X00033041*
X00033236Y00074844*
G37*
G36*
X0009753D02*
X00098044D01*
X00098214Y0007482*
X00098336*
X00098507Y00074796*
X00098629Y00074747*
X00098702Y00074674*
X00098775Y00074625*
X00098824Y00074478*
Y00074454*
Y00074429*
Y00074283*
Y00074088*
X00098799Y00073697*
X00098775Y00073526*
Y0007338*
X00098751Y00073282*
Y00073258*
X00098726Y00072965*
Y00072721*
Y00072501*
X00098702Y0007233*
Y00072184*
Y00072086*
Y00072037*
Y00072013*
Y00071769*
Y00071476*
Y00071159*
Y00070866*
X00098679Y00070597*
Y00070377*
Y00070231*
Y00070207*
Y00070182*
Y00069743*
X00098653Y00069377*
Y00069059*
Y00068791*
Y00068596*
Y00068449*
Y00068351*
Y00068327*
X00098679Y00067936*
X00098726Y00067619*
X00098775Y00067375*
X00098873Y0006718*
X00098946Y00067033*
X00098995Y00066936*
X00099044Y00066887*
X00099068Y00066862*
X00099263Y0006674*
X00099507Y00066643*
X00099752Y00066594*
X0010002Y00066545*
X00100288Y00066521*
X00100484Y00066496*
X00100923*
X00101167Y00066521*
X00101289*
X00101387Y00066545*
X0010146*
X00101802Y0006657*
X00102241*
X00102436Y00066545*
X00102583Y00066472*
X00102681Y00066399*
X00102754Y00066277*
X00102803Y00066179*
X00102827Y00066106*
Y00066033*
Y00066008*
Y00065886*
Y00065715*
Y00065349*
X00102803Y00065178*
Y00065032*
Y00064934*
Y0006491*
Y00064666*
Y00064446*
Y00064251*
Y00064104*
Y00063982*
Y00063884*
Y00063836*
Y00063811*
Y00063665*
X00102827Y00063494*
X00102851Y00063103*
Y00062933*
X00102876Y00062786*
Y00062688*
Y00062664*
X001029Y00062396*
X00102925Y00062176*
X00102949Y00061981*
X00102974Y0006181*
Y00061688*
Y0006159*
Y00061541*
Y00061517*
X00102949Y00061395*
X00102851Y00061297*
X00102729Y00061248*
X00102583Y00061199*
X00102412Y00061175*
X0010229Y00061151*
X00102168*
X00101704Y00061175*
X00101241Y00061273*
X00100826Y00061395*
X00100411Y00061517*
X00100069Y00061663*
X00099825Y00061785*
X00099727Y00061834*
X00099654Y00061883*
X00099605Y00061907*
X00099581*
X00099385Y00062029*
X0009919Y00062127*
X00098897Y00062298*
X00098702Y0006242*
X00098555Y00062518*
X00098482Y00062566*
X00098433Y00062615*
X00098409Y0006264*
X00098336Y00062591*
X00098287Y00062469*
X00098238Y00062322*
X00098214Y00062152*
X00098189Y00062005*
X00098165Y00061859*
Y00061761*
Y00061736*
X0009814Y00061444*
X00098092Y00061224*
X00098044Y00061078*
X00097994Y00060955*
X00097945Y00060907*
X00097896Y00060882*
X00097872Y00060858*
X00097799*
X00097725Y00060882*
X00097604Y00060907*
X00097457Y00060931*
X00097286Y00060955*
X00097091Y00061004*
X00096651Y00061078*
X00096236Y00061151*
X00096041Y00061199*
X0009587Y00061224*
X00095748Y00061248*
X00095626Y00061273*
X00095553Y00061297*
X00095529*
X00095016Y0006137*
X00094552Y00061444*
X00094162Y00061517*
X00093844Y00061566*
X000936Y0006159*
X00093405Y00061615*
X00093307Y00061639*
X00093259*
X00093137Y00061712*
X00093088Y00061785*
X00093063Y00061883*
Y00061907*
X00093088Y00062029*
Y00062078*
Y00062103*
X00093185Y00062518*
X00093283Y00062957*
X00093429Y0006386*
X00093552Y00064788*
X000936Y00065227*
X00093625Y00065642*
X00093649Y00066033*
X00093673Y00066399*
Y0006674*
X00093698Y00067009*
Y00067253*
Y00067424*
Y00067522*
Y0006757*
Y0006779*
Y00068034*
Y00068596*
Y00069157*
Y00069694*
X00093673Y00070182*
Y00070402*
Y00070597*
Y00070744*
Y00070866*
Y00070939*
Y00070963*
Y00071378*
Y00071744*
Y00072111*
Y00072428*
Y00072745*
Y00073014*
Y00073258*
Y00073477*
Y00073697*
Y00073868*
Y0007399*
Y00074112*
Y0007421*
Y00074283*
Y00074307*
Y00074332*
X00093698Y00074454*
X00093747Y00074576*
X00093893Y00074698*
X0009404Y00074771*
X00094088Y00074796*
X00094113*
X00094455Y0007482*
X00094796Y00074844*
X00095162*
X00095504Y00074869*
X00097189*
X0009753Y00074844*
G37*
G36*
X00082445D02*
X00082763Y00074796D01*
X0008308Y00074722*
X00083397Y00074625*
X00083983Y00074356*
X00084471Y00074063*
X00084691Y00073917*
X00084911Y00073795*
X00085081Y00073648*
X00085228Y00073526*
X0008535Y00073429*
X00085423Y00073355*
X00085472Y00073307*
X00085496Y00073282*
X00085618Y00073185*
X00085716Y00073111*
X00085765Y00073063*
X00085789*
X00085838Y00073087*
X00085863Y00073185*
X00085911Y00073307*
X00085936Y00073453*
X0008596Y00073624*
Y00073746*
X00085985Y00073844*
Y00073868*
X00086033Y00074137*
X00086082Y00074332*
X00086155Y00074478*
X00086229Y00074576*
X00086302Y00074625*
X00086351Y00074649*
X00086375Y00074674*
X00087205*
X00087962Y00074649*
X00088646Y00074625*
X00088938*
X00089231Y000746*
X00089695*
X00089916Y00074576*
X00090061*
X00090207Y00074551*
X00090378*
X00090549Y00074527*
X00090671Y00074454*
X00090744Y00074356*
X00090818Y00074234*
X00090842Y00074137*
X00090867Y00074039*
Y00073966*
Y00073941*
Y00073722*
Y00073502*
X00090842Y00072989*
X00090818Y00072452*
X00090793Y0007194*
X00090769Y00071476*
X00090744Y00071256*
Y00071085*
Y00070939*
X0009072Y00070841*
Y00070768*
Y00070744*
X00090696Y00070353*
X00090671Y00069987*
Y00069645*
X00090647Y00069328*
Y00069035*
X00090622Y00068766*
Y00068522*
Y00068303*
X00090598Y00068132*
Y00067961*
Y00067814*
Y00067692*
Y00067619*
Y00067546*
Y00067497*
X00090622Y00066447*
X00090671Y00065447*
X0009072Y00064983*
X00090744Y00064544*
X00090793Y00064104*
X00090842Y00063738*
X00090891Y00063373*
X0009094Y00063055*
X00090964Y00062786*
X00091013Y00062542*
X00091037Y00062347*
X00091062Y00062225*
X00091086Y00062127*
Y00062103*
X00091111Y00061956*
Y00061859*
Y0006181*
X00091086Y00061712*
X00091013Y00061639*
X0009094Y0006159*
X00090915Y00061566*
X00090647Y00061492*
X00090354Y00061419*
X00090012Y00061346*
X0008967Y00061273*
X00089377Y00061199*
X00089109Y00061151*
X00089036Y00061126*
X00088962Y00061102*
X00088889*
X00088401Y00061004*
X00087962Y00060931*
X0008762Y00060882*
X00087352Y00060833*
X00087156*
X0008701Y00060809*
X00086912*
X00086839Y00060833*
X00086766Y00060907*
X00086692Y00061029*
X00086644Y00061151*
X00086595Y00061273*
X00086546Y00061395*
X00086522Y00061468*
Y00061492*
X00086473Y00061712*
X00086399Y00061883*
X00086351Y00061981*
X00086326Y00062078*
X00086302Y00062127*
X00086277Y00062152*
X00086253*
X00086155Y00062127*
X00086131Y00062103*
X00085887Y00061834*
X00085618Y0006159*
X0008535Y0006137*
X00085057Y00061199*
X00084764Y00061053*
X00084471Y00060931*
X0008391Y00060736*
X00083422Y00060614*
X00083202Y00060589*
X00083007Y00060565*
X0008286Y00060541*
X0008264*
X00082055Y00060565*
X00081518Y00060638*
X00080981Y00060736*
X00080518Y00060858*
X00080053Y00061029*
X00079638Y00061199*
X00079272Y00061395*
X0007893Y00061566*
X00078637Y00061761*
X00078369Y00061956*
X00078125Y00062127*
X00077954Y00062298*
X00077807Y0006242*
X0007771Y00062518*
X00077637Y00062591*
X00077612Y00062615*
X00077295Y00063006*
X00077026Y00063396*
X00076807Y00063836*
X00076587Y00064275*
X00076416Y00064714*
X00076294Y00065154*
X00076172Y00065569*
X00076074Y00065984*
X00076001Y00066374*
X00075952Y00066716*
X00075903Y00067033*
X00075879Y00067326*
Y00067546*
X00075855Y00067717*
Y00067814*
Y00067863*
X00075879Y00068376*
X00075928Y00068888*
X00076001Y00069352*
X00076123Y00069816*
X00076245Y00070231*
X00076392Y00070646*
X00076563Y00071012*
X00076709Y00071329*
X0007688Y00071647*
X00077026Y00071915*
X00077173Y00072136*
X00077295Y0007233*
X00077417Y00072501*
X0007749Y00072599*
X00077539Y00072672*
X00077563Y00072696*
X00077905Y00073087*
X00078271Y00073404*
X00078662Y00073697*
X00079028Y00073941*
X00079418Y00074161*
X00079785Y00074332*
X00080151Y00074478*
X00080518Y000746*
X00080834Y00074698*
X00081151Y00074747*
X0008142Y00074796*
X0008164Y00074844*
X00081835*
X00081981Y00074869*
X00082104*
X00082445Y00074844*
G37*
G36*
X00042267D02*
X00042682D01*
X00043Y0007482*
X00043219Y00074796*
X0004339*
X00043488Y00074771*
X00043512*
X00043634Y00074722*
X00043708Y00074674*
X00043805Y00074551*
X00043854Y00074454*
Y00074405*
Y00074234*
Y00074063*
Y00073697*
X00043829Y00073526*
Y00073404*
Y00073307*
Y00073282*
X00043805Y00073014*
X00043781Y00072794*
Y00072599*
X00043756Y00072452*
Y0007233*
Y00072257*
Y00072208*
Y00072184*
Y00071769*
Y00071329*
Y00070866*
X00043732Y00070402*
Y00069401*
Y00068449*
Y0006801*
Y00067595*
Y00067204*
Y00066887*
Y00066618*
Y00066423*
Y00066301*
Y00066252*
Y00065373*
X00043756Y00064446*
X00043805Y00062591*
X00043829Y00061688*
X00043854Y00060785*
X00043903Y0005993*
X00043927Y00059125*
X00043976Y00058368*
X00044Y0005766*
X00044025Y0005705*
X00044049Y00056757*
X00044074Y00056513*
Y00056293*
X00044098Y00056074*
Y00055903*
Y00055756*
X00044123Y00055634*
Y00055561*
Y00055512*
Y00055488*
Y00055268*
Y0005517*
X00044074Y00055073*
X00043976Y00055*
X00043854Y00054951*
X00038752*
X0003863Y00054975*
X00038533Y00055*
X00038484Y00055048*
X00038435Y00055097*
X00038386Y00055219*
Y00055245*
Y00055268*
Y00055341*
X00038411Y00055415*
X00038435Y00055463*
Y00055488*
X00038533Y00056367*
X00038606Y00057294*
X00038679Y00058173*
X00038704Y00058612*
X00038728Y00059027*
Y00059418*
X00038752Y00059759*
Y00060077*
X00038777Y00060345*
Y00060565*
Y00060711*
Y00060833*
Y00060858*
X00038752Y00066252*
Y00066496*
Y00066765*
Y00067375*
Y00067985*
Y00068596*
X00038728Y00068888*
Y00069157*
Y00069401*
Y00069596*
Y00069767*
Y00069889*
Y00069987*
Y00070011*
Y00070475*
Y0007089*
Y00071305*
Y00071671*
Y00072013*
Y00072306*
Y00072599*
Y00072843*
Y00073063*
Y00073258*
Y00073429*
Y00073551*
Y00073648*
Y00073746*
Y0007377*
Y00073795*
Y00074381*
X00038752Y00074478*
X00038777Y00074576*
X00038899Y00074698*
X00038996Y00074747*
X00039045Y00074771*
X00039143Y00074796*
X00039265*
X00039582Y0007482*
X00039949Y00074844*
X00040315*
X00040656Y00074869*
X00041804*
X00042267Y00074844*
G37*
%LNpcb1-2*%
%LPC*%
G36*
X00051128Y00066496D02*
X00050811D01*
X00050664Y00066472*
X00050566Y00066423*
X00050493Y00066374*
X00050444Y00066301*
X00050396Y00066155*
Y0006613*
Y00066106*
X0005042Y00065788*
X00050493Y00065471*
X00050566Y00065203*
X00050689Y00064959*
X00050786Y00064763*
X0005086Y00064617*
X00050933Y00064519*
X00050957Y00064495*
X00051177Y00064251*
X00051421Y0006408*
X00051665Y00063933*
X00051885Y0006386*
X0005208Y00063811*
X00052251Y00063762*
X00052397*
X00052715Y00063787*
X00052983Y0006386*
X00053252Y00063982*
X00053471Y0006408*
X00053642Y00064202*
X00053764Y00064324*
X00053862Y00064397*
X00053886Y00064422*
X00054106Y00064666*
X00054252Y00064934*
X00054374Y00065178*
X00054448Y00065422*
X00054496Y00065618*
X00054521Y00065788*
Y00065886*
Y00065935*
X00054496Y00065984*
X00054448Y00066033*
X00054301Y0006613*
X0005413Y00066155*
X00054081Y00066179*
X00054057*
X00053666Y00066228*
X00053276Y00066277*
X00052934Y00066325*
X00052617Y0006635*
X00052324Y00066399*
X00052055Y00066423*
X00051811Y00066447*
X00051592*
X00051421Y00066472*
X0005125*
X00051128Y00066496*
G37*
G36*
X00083397Y00070377D02*
X00083348D01*
X00082933Y00070353*
X00082567Y00070255*
X0008225Y00070133*
X00081981Y00069962*
X00081762Y00069816*
X00081591Y00069694*
X00081469Y00069596*
X00081444Y00069572*
X00081176Y00069255*
X00081005Y00068913*
X00080859Y00068571*
X00080761Y00068278*
X00080712Y0006801*
X00080688Y0006779*
X00080663Y00067644*
Y00067619*
Y00067595*
X00080688Y00067155*
X00080785Y00066765*
X00080907Y00066423*
X0008103Y0006613*
X00081176Y0006591*
X00081274Y0006574*
X00081371Y00065618*
X00081396Y00065593*
X00081689Y00065325*
X00082006Y00065129*
X00082348Y00065007*
X0008264Y0006491*
X00082933Y00064861*
X00083153Y00064812*
X00083348*
X00083788Y00064836*
X00084178Y00064934*
X0008452Y00065056*
X00084788Y00065203*
X00085033Y00065349*
X00085179Y00065471*
X00085301Y00065569*
X00085325Y00065593*
X0008557Y0006591*
X00085765Y00066228*
X00085887Y0006657*
X00085985Y00066887*
X00086033Y00067155*
X00086082Y00067399*
Y00067546*
Y0006757*
Y00067595*
X00086058Y00068034*
X0008596Y000684*
X00085838Y00068742*
X00085716Y00069035*
X0008557Y00069279*
X00085448Y0006945*
X0008535Y00069548*
X00085325Y00069596*
X00085033Y00069865*
X00084691Y00070036*
X00084374Y00070182*
X00084056Y0007028*
X00083763Y00070329*
X00083544Y00070353*
X00083397Y00070377*
G37*
%LNpcb1-3*%
%LPD*%
G54D10*
X00138433Y00068275D02*
D01*
X00138263Y00073158*
X00137752Y00078017*
X00136904Y00082829*
X00135722Y0008757*
X00134212Y00092217*
X00132382Y00096747*
X0013024Y00101138*
X00127797Y0010537*
X00125065Y0010942*
X00122056Y00113271*
X00118787Y00116901*
X00115273Y00120295*
X0011153Y00123436*
X00107577Y00126308*
X00103433Y00128897*
X00099119Y00131191*
X00094656Y00133178*
X00090065Y00134849*
X00085368Y00136196*
X00080589Y00137212*
X0007575Y00137892*
X00070876Y00138233*
X0006599*
X00061116Y00137892*
X00056278Y00137212*
X00051499Y00136196*
X00046802Y00134849*
X00042211Y00133178*
X00037747Y00131191*
X00033433Y00128897*
X0002929Y00126308*
X00025337Y00123436*
X00021594Y00120295*
X00018079Y00116901*
X0001481Y00113271*
X00011802Y0010942*
X0000907Y0010537*
X00006627Y00101138*
X00004485Y00096747*
X00002655Y00092217*
X00001145Y0008757*
X-00000036Y00082829*
X-00000884Y00078017*
X-00001395Y00073158*
X-00001565Y00068275*
X-00001395Y00063392*
X-00000884Y00058533*
X-00000036Y00053722*
X00001145Y00048981*
X00002655Y00044334*
X00004485Y00039804*
X00006627Y00035412*
X0000907Y00031181*
X00011802Y00027131*
X0001481Y0002328*
X00018079Y00019649*
X00021594Y00016255*
X00025337Y00013115*
X0002929Y00010243*
X00033433Y00007654*
X00037747Y0000536*
X00042211Y00003373*
X00046802Y00001701*
X00051499Y00000355*
X00056278Y-0000066*
X00061116Y-0000134*
X0006599Y-00001681*
X00070876*
X0007575Y-0000134*
X00080589Y-0000066*
X00085368Y00000355*
X00090065Y00001701*
X00094656Y00003373*
X00099119Y0000536*
X00103433Y00007654*
X00107577Y00010243*
X0011153Y00013115*
X00115273Y00016255*
X00118787Y00019649*
X00122056Y0002328*
X00125065Y00027131*
X00127797Y00031181*
X0013024Y00035412*
X00132382Y00039804*
X00134212Y00044334*
X00135722Y00048981*
X00136904Y00053722*
X00137752Y00058533*
X00138263Y00063392*
X00138433Y00068275*
G54D11*
X00041184Y00176632D02*
Y00208219D01*
Y00176127D02*
X00047665D01*
X00089047D02*
X00095527D01*
Y00198374D02*
Y00205906D01*
X00063315Y00176127D02*
X0007328D01*
X00041184Y00208219D02*
X00095527D01*
X00068654Y00176127D02*
Y00208219D01*
X00095527Y00176127D02*
Y00208219D01*
G54D12*
X00084188Y00090449D02*
X0008752D01*
X00085854*
Y00080452*
X00084188Y00082118*
X00099183Y00090449D02*
X00092518D01*
X00099183Y00083784*
Y00082118*
X00097517Y00080452*
X00094184*
X00092518Y00082118*
X00102515Y00080452D02*
Y00090449D01*
X00109179*
M02*